<mxfile host="app.diagrams.net" modified="2022-03-09T19:23:08.188Z" agent="5.0 (Windows NT 10.0; Win64; x64) AppleWebKit/537.36 (KHTML, like Gecko) Chrome/99.0.4844.51 Safari/537.36" etag="cMWJhMSU6UxlXuFPIyS8" version="17.1.0" type="github" pages="4">
  <diagram id="enNiBLfIJg5sqgtFrb1T" name="ex1_2">
    <mxGraphModel dx="1422" dy="694" grid="1" gridSize="10" guides="1" tooltips="1" connect="1" arrows="1" fold="1" page="1" pageScale="1" pageWidth="827" pageHeight="1169" math="0" shadow="0">
      <root>
        <mxCell id="0" />
        <mxCell id="1" parent="0" />
        <mxCell id="flkErL7YkCr-jG7O8vwP-11" value="" style="edgeStyle=orthogonalEdgeStyle;rounded=0;orthogonalLoop=1;jettySize=auto;html=1;" parent="1" source="flkErL7YkCr-jG7O8vwP-8" target="flkErL7YkCr-jG7O8vwP-9" edge="1">
          <mxGeometry relative="1" as="geometry" />
        </mxCell>
        <mxCell id="flkErL7YkCr-jG7O8vwP-40" style="edgeStyle=orthogonalEdgeStyle;rounded=0;orthogonalLoop=1;jettySize=auto;html=1;exitX=0.5;exitY=1;exitDx=0;exitDy=0;entryX=0.5;entryY=0;entryDx=0;entryDy=0;" parent="1" source="flkErL7YkCr-jG7O8vwP-9" target="flkErL7YkCr-jG7O8vwP-12" edge="1">
          <mxGeometry relative="1" as="geometry" />
        </mxCell>
        <mxCell id="flkErL7YkCr-jG7O8vwP-9" value="Levantar CD no CS" style="rounded=1;whiteSpace=wrap;html=1;arcSize=40;fontColor=#000000;fillColor=#ffffc0;strokeColor=#ff0000;" parent="1" vertex="1">
          <mxGeometry x="82" y="335" width="120" height="40" as="geometry" />
        </mxCell>
        <mxCell id="flkErL7YkCr-jG7O8vwP-42" style="edgeStyle=orthogonalEdgeStyle;rounded=0;orthogonalLoop=1;jettySize=auto;html=1;exitX=0.5;exitY=1;exitDx=0;exitDy=0;entryX=0.5;entryY=0;entryDx=0;entryDy=0;" parent="1" source="flkErL7YkCr-jG7O8vwP-12" target="flkErL7YkCr-jG7O8vwP-14" edge="1">
          <mxGeometry relative="1" as="geometry" />
        </mxCell>
        <mxCell id="flkErL7YkCr-jG7O8vwP-12" value="Escolha de MD" style="rounded=1;whiteSpace=wrap;html=1;arcSize=40;fontColor=#000000;fillColor=#ffffc0;strokeColor=#ff0000;" parent="1" vertex="1">
          <mxGeometry x="82" y="400" width="120" height="40" as="geometry" />
        </mxCell>
        <mxCell id="flkErL7YkCr-jG7O8vwP-45" style="edgeStyle=orthogonalEdgeStyle;rounded=0;orthogonalLoop=1;jettySize=auto;html=1;exitX=1;exitY=0.5;exitDx=0;exitDy=0;" parent="1" source="flkErL7YkCr-jG7O8vwP-14" target="flkErL7YkCr-jG7O8vwP-16" edge="1">
          <mxGeometry relative="1" as="geometry">
            <mxPoint x="730" y="490" as="targetPoint" />
            <Array as="points">
              <mxPoint x="730" y="490" />
            </Array>
          </mxGeometry>
        </mxCell>
        <mxCell id="flkErL7YkCr-jG7O8vwP-14" value="Marcação de consulta" style="rounded=1;whiteSpace=wrap;html=1;arcSize=40;fontColor=#000000;fillColor=#ffffc0;strokeColor=#ff0000;" parent="1" vertex="1">
          <mxGeometry x="80" y="470" width="124" height="40" as="geometry" />
        </mxCell>
        <mxCell id="flkErL7YkCr-jG7O8vwP-69" style="edgeStyle=orthogonalEdgeStyle;rounded=0;orthogonalLoop=1;jettySize=auto;html=1;exitX=0;exitY=0.5;exitDx=0;exitDy=0;entryX=0.5;entryY=1;entryDx=0;entryDy=0;" parent="1" source="flkErL7YkCr-jG7O8vwP-62" target="flkErL7YkCr-jG7O8vwP-14" edge="1">
          <mxGeometry relative="1" as="geometry" />
        </mxCell>
        <mxCell id="flkErL7YkCr-jG7O8vwP-75" value="Pool" style="swimlane;childLayout=stackLayout;resizeParent=1;resizeParentMax=0;startSize=20;" parent="1" vertex="1">
          <mxGeometry x="60" y="100" width="897" height="980" as="geometry">
            <mxRectangle x="60" y="100" width="60" height="20" as="alternateBounds" />
          </mxGeometry>
        </mxCell>
        <mxCell id="flkErL7YkCr-jG7O8vwP-76" value="Utente" style="swimlane;startSize=20;" parent="flkErL7YkCr-jG7O8vwP-75" vertex="1">
          <mxGeometry y="20" width="290" height="960" as="geometry" />
        </mxCell>
        <mxCell id="flkErL7YkCr-jG7O8vwP-90" value="" style="edgeStyle=orthogonalEdgeStyle;rounded=0;orthogonalLoop=1;jettySize=auto;html=1;" parent="flkErL7YkCr-jG7O8vwP-76" source="flkErL7YkCr-jG7O8vwP-1" target="flkErL7YkCr-jG7O8vwP-3" edge="1">
          <mxGeometry relative="1" as="geometry" />
        </mxCell>
        <mxCell id="flkErL7YkCr-jG7O8vwP-1" value="" style="ellipse;html=1;shape=startState;fillColor=#000000;strokeColor=#ff0000;" parent="flkErL7YkCr-jG7O8vwP-76" vertex="1">
          <mxGeometry x="73" y="30" width="30" height="30" as="geometry" />
        </mxCell>
        <mxCell id="flkErL7YkCr-jG7O8vwP-3" value="Consulta MA" style="rounded=1;whiteSpace=wrap;html=1;arcSize=40;fontColor=#000000;fillColor=#ffffc0;strokeColor=#ff0000;" parent="flkErL7YkCr-jG7O8vwP-76" vertex="1">
          <mxGeometry x="28" y="80" width="120" height="40" as="geometry" />
        </mxCell>
        <mxCell id="flkErL7YkCr-jG7O8vwP-87" style="edgeStyle=orthogonalEdgeStyle;rounded=0;orthogonalLoop=1;jettySize=auto;html=1;exitX=0.5;exitY=1;exitDx=0;exitDy=0;entryX=0.5;entryY=0;entryDx=0;entryDy=0;" parent="flkErL7YkCr-jG7O8vwP-76" source="flkErL7YkCr-jG7O8vwP-1" target="flkErL7YkCr-jG7O8vwP-3" edge="1">
          <mxGeometry relative="1" as="geometry" />
        </mxCell>
        <mxCell id="-aMw-O6SbJe7xXb-nS87-1" value="AS - Ex 1.2&lt;br&gt;Grupo 601 (DA, , , )&lt;br&gt;v2022/03/087" style="shape=note2;boundedLbl=1;whiteSpace=wrap;html=1;size=10;verticalAlign=top;align=left;" vertex="1" parent="flkErL7YkCr-jG7O8vwP-76">
          <mxGeometry x="74.5" y="880" width="141" height="60" as="geometry" />
        </mxCell>
        <mxCell id="flkErL7YkCr-jG7O8vwP-77" value="MA" style="swimlane;startSize=20;" parent="flkErL7YkCr-jG7O8vwP-75" vertex="1">
          <mxGeometry x="290" y="20" width="210" height="960" as="geometry" />
        </mxCell>
        <mxCell id="flkErL7YkCr-jG7O8vwP-5" value="Critérios ?" style="rhombus;whiteSpace=wrap;html=1;fillColor=#ffffc0;strokeColor=#ff0000;" parent="flkErL7YkCr-jG7O8vwP-77" vertex="1">
          <mxGeometry x="40" y="120" width="80" height="40" as="geometry" />
        </mxCell>
        <mxCell id="flkErL7YkCr-jG7O8vwP-8" value="CD" style="html=1;" parent="flkErL7YkCr-jG7O8vwP-77" vertex="1">
          <mxGeometry x="25" y="210" width="110" height="50" as="geometry" />
        </mxCell>
        <mxCell id="flkErL7YkCr-jG7O8vwP-37" value="" style="edgeStyle=orthogonalEdgeStyle;rounded=0;orthogonalLoop=1;jettySize=auto;html=1;" parent="flkErL7YkCr-jG7O8vwP-77" source="flkErL7YkCr-jG7O8vwP-5" target="flkErL7YkCr-jG7O8vwP-8" edge="1">
          <mxGeometry relative="1" as="geometry" />
        </mxCell>
        <mxCell id="flkErL7YkCr-jG7O8vwP-88" value="Sim" style="text;html=1;strokeColor=none;fillColor=none;align=center;verticalAlign=middle;whiteSpace=wrap;rounded=0;" parent="flkErL7YkCr-jG7O8vwP-77" vertex="1">
          <mxGeometry x="75" y="160" width="60" height="30" as="geometry" />
        </mxCell>
        <mxCell id="flkErL7YkCr-jG7O8vwP-94" value="Não" style="text;html=1;strokeColor=none;fillColor=none;align=center;verticalAlign=middle;whiteSpace=wrap;rounded=0;" parent="flkErL7YkCr-jG7O8vwP-77" vertex="1">
          <mxGeometry x="120" y="110" width="60" height="30" as="geometry" />
        </mxCell>
        <mxCell id="flkErL7YkCr-jG7O8vwP-39" style="edgeStyle=orthogonalEdgeStyle;rounded=0;orthogonalLoop=1;jettySize=auto;html=1;exitX=1;exitY=0.5;exitDx=0;exitDy=0;entryX=0.5;entryY=0;entryDx=0;entryDy=0;" parent="flkErL7YkCr-jG7O8vwP-75" source="flkErL7YkCr-jG7O8vwP-3" target="flkErL7YkCr-jG7O8vwP-5" edge="1">
          <mxGeometry relative="1" as="geometry" />
        </mxCell>
        <mxCell id="flkErL7YkCr-jG7O8vwP-98" style="edgeStyle=orthogonalEdgeStyle;rounded=0;orthogonalLoop=1;jettySize=auto;html=1;exitX=1;exitY=0.5;exitDx=0;exitDy=0;entryX=0;entryY=0.5;entryDx=0;entryDy=0;" parent="flkErL7YkCr-jG7O8vwP-75" source="flkErL7YkCr-jG7O8vwP-5" target="flkErL7YkCr-jG7O8vwP-71" edge="1">
          <mxGeometry relative="1" as="geometry">
            <mxPoint x="695" y="945" as="targetPoint" />
            <Array as="points">
              <mxPoint x="460" y="160" />
              <mxPoint x="460" y="945" />
            </Array>
          </mxGeometry>
        </mxCell>
        <mxCell id="flkErL7YkCr-jG7O8vwP-82" value="MD" style="swimlane;startSize=20;" parent="flkErL7YkCr-jG7O8vwP-75" vertex="1">
          <mxGeometry x="500" y="20" width="397" height="960" as="geometry" />
        </mxCell>
        <mxCell id="flkErL7YkCr-jG7O8vwP-83" style="edgeStyle=orthogonalEdgeStyle;rounded=0;orthogonalLoop=1;jettySize=auto;html=1;exitX=0.25;exitY=0.5;exitDx=0;exitDy=0;exitPerimeter=0;entryX=0.5;entryY=0;entryDx=0;entryDy=0;" parent="flkErL7YkCr-jG7O8vwP-82" source="flkErL7YkCr-jG7O8vwP-16" target="flkErL7YkCr-jG7O8vwP-19" edge="1">
          <mxGeometry relative="1" as="geometry" />
        </mxCell>
        <mxCell id="flkErL7YkCr-jG7O8vwP-16" value="" style="shape=line;html=1;strokeWidth=6;strokeColor=#ff0000;" parent="flkErL7YkCr-jG7O8vwP-82" vertex="1">
          <mxGeometry x="60" y="390" width="200" height="10" as="geometry" />
        </mxCell>
        <mxCell id="flkErL7YkCr-jG7O8vwP-21" value="Primeira Consulta ?" style="rhombus;whiteSpace=wrap;html=1;fillColor=#ffffc0;strokeColor=#ff0000;" parent="flkErL7YkCr-jG7O8vwP-82" vertex="1">
          <mxGeometry x="180" y="580" width="90" height="50" as="geometry" />
        </mxCell>
        <mxCell id="flkErL7YkCr-jG7O8vwP-24" value="Pesquisa do Vale no SISO" style="rounded=1;whiteSpace=wrap;html=1;arcSize=40;fontColor=#000000;fillColor=#ffffc0;strokeColor=#ff0000;" parent="flkErL7YkCr-jG7O8vwP-82" vertex="1">
          <mxGeometry x="169" y="440" width="120" height="40" as="geometry" />
        </mxCell>
        <mxCell id="flkErL7YkCr-jG7O8vwP-48" style="edgeStyle=orthogonalEdgeStyle;rounded=0;orthogonalLoop=1;jettySize=auto;html=1;exitX=0.75;exitY=0.5;exitDx=0;exitDy=0;exitPerimeter=0;entryX=0.5;entryY=0;entryDx=0;entryDy=0;" parent="flkErL7YkCr-jG7O8vwP-82" source="flkErL7YkCr-jG7O8vwP-16" target="flkErL7YkCr-jG7O8vwP-24" edge="1">
          <mxGeometry relative="1" as="geometry" />
        </mxCell>
        <mxCell id="flkErL7YkCr-jG7O8vwP-51" style="edgeStyle=orthogonalEdgeStyle;rounded=0;orthogonalLoop=1;jettySize=auto;html=1;exitX=0.5;exitY=1;exitDx=0;exitDy=0;entryX=0.5;entryY=0;entryDx=0;entryDy=0;" parent="flkErL7YkCr-jG7O8vwP-82" source="flkErL7YkCr-jG7O8vwP-28" target="flkErL7YkCr-jG7O8vwP-21" edge="1">
          <mxGeometry relative="1" as="geometry" />
        </mxCell>
        <mxCell id="flkErL7YkCr-jG7O8vwP-28" value="Registo de&amp;nbsp; tratamentos em cada consulta no SISO" style="rounded=1;whiteSpace=wrap;html=1;arcSize=40;fontColor=#000000;fillColor=#ffffc0;strokeColor=#ff0000;" parent="flkErL7YkCr-jG7O8vwP-82" vertex="1">
          <mxGeometry x="165" y="500" width="120" height="50" as="geometry" />
        </mxCell>
        <mxCell id="flkErL7YkCr-jG7O8vwP-49" style="edgeStyle=orthogonalEdgeStyle;rounded=0;orthogonalLoop=1;jettySize=auto;html=1;exitX=0.5;exitY=1;exitDx=0;exitDy=0;entryX=0.5;entryY=0;entryDx=0;entryDy=0;" parent="flkErL7YkCr-jG7O8vwP-82" source="flkErL7YkCr-jG7O8vwP-24" target="flkErL7YkCr-jG7O8vwP-28" edge="1">
          <mxGeometry relative="1" as="geometry" />
        </mxCell>
        <mxCell id="flkErL7YkCr-jG7O8vwP-30" value="Registo do Diagnostico e Plano de Tratamento no SISO" style="rounded=1;whiteSpace=wrap;html=1;arcSize=40;fontColor=#000000;fillColor=#ffffc0;strokeColor=#ff0000;" parent="flkErL7YkCr-jG7O8vwP-82" vertex="1">
          <mxGeometry x="270" y="640" width="120" height="60" as="geometry" />
        </mxCell>
        <mxCell id="flkErL7YkCr-jG7O8vwP-55" style="edgeStyle=orthogonalEdgeStyle;rounded=0;orthogonalLoop=1;jettySize=auto;html=1;exitX=1;exitY=0.5;exitDx=0;exitDy=0;entryX=0.5;entryY=0;entryDx=0;entryDy=0;" parent="flkErL7YkCr-jG7O8vwP-82" source="flkErL7YkCr-jG7O8vwP-21" target="flkErL7YkCr-jG7O8vwP-30" edge="1">
          <mxGeometry relative="1" as="geometry" />
        </mxCell>
        <mxCell id="flkErL7YkCr-jG7O8vwP-32" value="" style="rhombus;whiteSpace=wrap;html=1;fillColor=#ffffc0;strokeColor=#ff0000;" parent="flkErL7YkCr-jG7O8vwP-82" vertex="1">
          <mxGeometry x="185" y="700" width="80" height="40" as="geometry" />
        </mxCell>
        <object label="" Não="" id="flkErL7YkCr-jG7O8vwP-52">
          <mxCell style="edgeStyle=orthogonalEdgeStyle;rounded=0;orthogonalLoop=1;jettySize=auto;exitX=0.5;exitY=1;exitDx=0;exitDy=0;entryX=0.5;entryY=0;entryDx=0;entryDy=0;html=1;" parent="flkErL7YkCr-jG7O8vwP-82" source="flkErL7YkCr-jG7O8vwP-21" target="flkErL7YkCr-jG7O8vwP-32" edge="1">
            <mxGeometry relative="1" as="geometry" />
          </mxCell>
        </object>
        <mxCell id="flkErL7YkCr-jG7O8vwP-57" style="edgeStyle=orthogonalEdgeStyle;rounded=0;orthogonalLoop=1;jettySize=auto;html=1;exitX=0.5;exitY=1;exitDx=0;exitDy=0;entryX=1;entryY=0.5;entryDx=0;entryDy=0;" parent="flkErL7YkCr-jG7O8vwP-82" source="flkErL7YkCr-jG7O8vwP-30" target="flkErL7YkCr-jG7O8vwP-32" edge="1">
          <mxGeometry relative="1" as="geometry" />
        </mxCell>
        <mxCell id="flkErL7YkCr-jG7O8vwP-53" value="Não" style="text;html=1;strokeColor=none;fillColor=none;align=center;verticalAlign=middle;whiteSpace=wrap;rounded=0;" parent="flkErL7YkCr-jG7O8vwP-82" vertex="1">
          <mxGeometry x="180" y="640" width="60" height="30" as="geometry" />
        </mxCell>
        <mxCell id="flkErL7YkCr-jG7O8vwP-56" value="Sim" style="text;html=1;strokeColor=none;fillColor=none;align=center;verticalAlign=middle;whiteSpace=wrap;rounded=0;" parent="flkErL7YkCr-jG7O8vwP-82" vertex="1">
          <mxGeometry x="260" y="580" width="60" height="30" as="geometry" />
        </mxCell>
        <mxCell id="flkErL7YkCr-jG7O8vwP-58" value="" style="shape=line;html=1;strokeWidth=6;strokeColor=#ff0000;" parent="flkErL7YkCr-jG7O8vwP-82" vertex="1">
          <mxGeometry x="60" y="760" width="200" height="10" as="geometry" />
        </mxCell>
        <mxCell id="flkErL7YkCr-jG7O8vwP-60" style="edgeStyle=orthogonalEdgeStyle;rounded=0;orthogonalLoop=1;jettySize=auto;html=1;exitX=0.5;exitY=1;exitDx=0;exitDy=0;entryX=0.833;entryY=0.276;entryDx=0;entryDy=0;entryPerimeter=0;" parent="flkErL7YkCr-jG7O8vwP-82" source="flkErL7YkCr-jG7O8vwP-32" target="flkErL7YkCr-jG7O8vwP-58" edge="1">
          <mxGeometry relative="1" as="geometry" />
        </mxCell>
        <mxCell id="flkErL7YkCr-jG7O8vwP-102" style="edgeStyle=orthogonalEdgeStyle;rounded=0;orthogonalLoop=1;jettySize=auto;html=1;exitX=0.5;exitY=1;exitDx=0;exitDy=0;entryX=0.5;entryY=0;entryDx=0;entryDy=0;" parent="flkErL7YkCr-jG7O8vwP-82" source="flkErL7YkCr-jG7O8vwP-62" target="flkErL7YkCr-jG7O8vwP-71" edge="1">
          <mxGeometry relative="1" as="geometry">
            <mxPoint x="160" y="910" as="targetPoint" />
          </mxGeometry>
        </mxCell>
        <mxCell id="flkErL7YkCr-jG7O8vwP-62" value="Nova Consulta ?" style="rhombus;whiteSpace=wrap;html=1;fillColor=#ffffc0;strokeColor=#ff0000;" parent="flkErL7YkCr-jG7O8vwP-82" vertex="1">
          <mxGeometry x="100" y="810" width="120" height="50" as="geometry" />
        </mxCell>
        <mxCell id="flkErL7YkCr-jG7O8vwP-66" value="" style="edgeStyle=orthogonalEdgeStyle;rounded=0;orthogonalLoop=1;jettySize=auto;html=1;" parent="flkErL7YkCr-jG7O8vwP-82" source="flkErL7YkCr-jG7O8vwP-58" target="flkErL7YkCr-jG7O8vwP-62" edge="1">
          <mxGeometry relative="1" as="geometry" />
        </mxCell>
        <mxCell id="flkErL7YkCr-jG7O8vwP-71" value="" style="ellipse;html=1;shape=endState;fillColor=#000000;strokeColor=#ff0000;" parent="flkErL7YkCr-jG7O8vwP-82" vertex="1">
          <mxGeometry x="145" y="910" width="30" height="30" as="geometry" />
        </mxCell>
        <mxCell id="flkErL7YkCr-jG7O8vwP-73" value="Não" style="text;html=1;strokeColor=none;fillColor=none;align=center;verticalAlign=middle;whiteSpace=wrap;rounded=0;" parent="flkErL7YkCr-jG7O8vwP-82" vertex="1">
          <mxGeometry x="155" y="860" width="60" height="30" as="geometry" />
        </mxCell>
        <mxCell id="flkErL7YkCr-jG7O8vwP-84" style="edgeStyle=orthogonalEdgeStyle;rounded=0;orthogonalLoop=1;jettySize=auto;html=1;exitX=0.5;exitY=1;exitDx=0;exitDy=0;entryX=0.25;entryY=0.5;entryDx=0;entryDy=0;entryPerimeter=0;" parent="flkErL7YkCr-jG7O8vwP-82" source="flkErL7YkCr-jG7O8vwP-19" target="flkErL7YkCr-jG7O8vwP-58" edge="1">
          <mxGeometry relative="1" as="geometry" />
        </mxCell>
        <mxCell id="flkErL7YkCr-jG7O8vwP-19" value="Consulta" style="rounded=1;whiteSpace=wrap;html=1;arcSize=40;fontColor=#000000;fillColor=#ffffc0;strokeColor=#ff0000;" parent="flkErL7YkCr-jG7O8vwP-82" vertex="1">
          <mxGeometry x="35" y="560" width="120" height="40" as="geometry" />
        </mxCell>
        <mxCell id="flkErL7YkCr-jG7O8vwP-70" value="Sim" style="text;html=1;strokeColor=none;fillColor=none;align=center;verticalAlign=middle;whiteSpace=wrap;rounded=0;" parent="flkErL7YkCr-jG7O8vwP-82" vertex="1">
          <mxGeometry x="40" y="810" width="60" height="30" as="geometry" />
        </mxCell>
      </root>
    </mxGraphModel>
  </diagram>
  <diagram id="drQ3skYYBl7UN4bwTTej" name="ex1_3">
    <mxGraphModel dx="1422" dy="694" grid="1" gridSize="10" guides="1" tooltips="1" connect="1" arrows="1" fold="1" page="1" pageScale="1" pageWidth="827" pageHeight="1169" math="0" shadow="0">
      <root>
        <mxCell id="GmzvWgwPOf0xR4j0EBqi-0" />
        <mxCell id="GmzvWgwPOf0xR4j0EBqi-1" parent="GmzvWgwPOf0xR4j0EBqi-0" />
        <mxCell id="NbL5csSl9PgMOPHOTbrk-0" value="Pool" style="swimlane;childLayout=stackLayout;resizeParent=1;resizeParentMax=0;startSize=20;strokeColor=#FF0000;fillColor=#FFF2CC;align=center;verticalAlign=middle;" parent="GmzvWgwPOf0xR4j0EBqi-1" vertex="1">
          <mxGeometry x="60" y="30" width="810" height="930" as="geometry" />
        </mxCell>
        <mxCell id="NbL5csSl9PgMOPHOTbrk-1" value="Médico" style="swimlane;startSize=20;strokeColor=#FF0000;fillColor=#FFF2CC;" parent="NbL5csSl9PgMOPHOTbrk-0" vertex="1">
          <mxGeometry y="20" width="220" height="910" as="geometry" />
        </mxCell>
        <mxCell id="NbL5csSl9PgMOPHOTbrk-7" value="" style="edgeStyle=orthogonalEdgeStyle;rounded=0;orthogonalLoop=1;jettySize=auto;html=1;exitX=0.5;exitY=1;exitDx=0;exitDy=0;" parent="NbL5csSl9PgMOPHOTbrk-1" source="NbL5csSl9PgMOPHOTbrk-5" target="NbL5csSl9PgMOPHOTbrk-6" edge="1">
          <mxGeometry relative="1" as="geometry">
            <mxPoint x="79.25" y="70" as="sourcePoint" />
          </mxGeometry>
        </mxCell>
        <mxCell id="NbL5csSl9PgMOPHOTbrk-5" value="" style="ellipse;fillColor=#000000;strokeColor=none;" parent="NbL5csSl9PgMOPHOTbrk-1" vertex="1">
          <mxGeometry x="64.25" y="30" width="30" height="30" as="geometry" />
        </mxCell>
        <mxCell id="NbL5csSl9PgMOPHOTbrk-10" value="" style="edgeStyle=orthogonalEdgeStyle;rounded=0;orthogonalLoop=1;jettySize=auto;html=1;" parent="NbL5csSl9PgMOPHOTbrk-1" source="NbL5csSl9PgMOPHOTbrk-6" target="NbL5csSl9PgMOPHOTbrk-9" edge="1">
          <mxGeometry relative="1" as="geometry" />
        </mxCell>
        <mxCell id="NbL5csSl9PgMOPHOTbrk-6" value="Preenchimento de&lt;br&gt;formulário" style="html=1;align=center;verticalAlign=middle;rounded=1;absoluteArcSize=1;arcSize=10;dashed=0;strokeColor=#FF0000;fillColor=#FFF2CC;" parent="NbL5csSl9PgMOPHOTbrk-1" vertex="1">
          <mxGeometry x="21.75" y="90" width="115" height="40" as="geometry" />
        </mxCell>
        <mxCell id="NbL5csSl9PgMOPHOTbrk-9" value="Dados do Médico" style="html=1;strokeColor=#FF0000;fillColor=#FFF2CC;verticalAlign=middle;" parent="NbL5csSl9PgMOPHOTbrk-1" vertex="1">
          <mxGeometry x="21.75" y="160" width="115" height="40" as="geometry" />
        </mxCell>
        <mxCell id="NbL5csSl9PgMOPHOTbrk-37" value="Entrada no sistema" style="html=1;align=center;verticalAlign=middle;rounded=1;absoluteArcSize=1;arcSize=10;dashed=0;fontSize=12;strokeColor=#FF0000;fillColor=#FFF2CC;" parent="NbL5csSl9PgMOPHOTbrk-1" vertex="1">
          <mxGeometry x="22.25" y="220" width="117" height="40" as="geometry" />
        </mxCell>
        <mxCell id="_6ze0SiyMvSnPd6XlcF5-1" value="" style="edgeStyle=orthogonalEdgeStyle;rounded=0;orthogonalLoop=1;jettySize=auto;html=1;fontSize=12;" parent="NbL5csSl9PgMOPHOTbrk-1" source="NbL5csSl9PgMOPHOTbrk-39" target="_6ze0SiyMvSnPd6XlcF5-0" edge="1">
          <mxGeometry relative="1" as="geometry" />
        </mxCell>
        <mxCell id="NbL5csSl9PgMOPHOTbrk-39" value="Pedido de adesão&lt;br&gt;de clínica" style="html=1;align=center;verticalAlign=middle;rounded=1;absoluteArcSize=1;arcSize=10;dashed=0;fontSize=12;strokeColor=#FF0000;fillColor=#FFF2CC;" parent="NbL5csSl9PgMOPHOTbrk-1" vertex="1">
          <mxGeometry x="22.25" y="290" width="117" height="40" as="geometry" />
        </mxCell>
        <mxCell id="NbL5csSl9PgMOPHOTbrk-40" value="" style="edgeStyle=orthogonalEdgeStyle;rounded=0;orthogonalLoop=1;jettySize=auto;html=1;fontSize=12;" parent="NbL5csSl9PgMOPHOTbrk-1" source="NbL5csSl9PgMOPHOTbrk-37" target="NbL5csSl9PgMOPHOTbrk-39" edge="1">
          <mxGeometry relative="1" as="geometry" />
        </mxCell>
        <mxCell id="_6ze0SiyMvSnPd6XlcF5-0" value="Habilitações da&lt;br&gt;Clínica" style="html=1;fontSize=12;strokeColor=#FF0000;fillColor=#FFF2CC;" parent="NbL5csSl9PgMOPHOTbrk-1" vertex="1">
          <mxGeometry x="25.75" y="360" width="110" height="40" as="geometry" />
        </mxCell>
        <mxCell id="_6ze0SiyMvSnPd6XlcF5-35" value="" style="edgeStyle=orthogonalEdgeStyle;rounded=0;orthogonalLoop=1;jettySize=auto;html=1;fontSize=12;" parent="NbL5csSl9PgMOPHOTbrk-1" source="_6ze0SiyMvSnPd6XlcF5-30" target="_6ze0SiyMvSnPd6XlcF5-33" edge="1">
          <mxGeometry relative="1" as="geometry" />
        </mxCell>
        <mxCell id="_6ze0SiyMvSnPd6XlcF5-30" value="Confirmação" style="html=1;shape=mxgraph.infographic.ribbonSimple;notch1=12;notch2=0;align=center;verticalAlign=middle;fontSize=14;fontStyle=0;flipH=1;fillColor=#FFFFFF;strokeColor=#FF0000;" parent="NbL5csSl9PgMOPHOTbrk-1" vertex="1">
          <mxGeometry x="23.25" y="430" width="115" height="40" as="geometry" />
        </mxCell>
        <mxCell id="_6ze0SiyMvSnPd6XlcF5-39" value="" style="edgeStyle=orthogonalEdgeStyle;rounded=0;orthogonalLoop=1;jettySize=auto;html=1;fontSize=12;" parent="NbL5csSl9PgMOPHOTbrk-1" source="_6ze0SiyMvSnPd6XlcF5-33" target="_6ze0SiyMvSnPd6XlcF5-36" edge="1">
          <mxGeometry relative="1" as="geometry" />
        </mxCell>
        <mxCell id="_6ze0SiyMvSnPd6XlcF5-33" value="Aceitar condições&lt;br&gt;de acesso + imprimir DC" style="html=1;align=center;verticalAlign=top;rounded=1;absoluteArcSize=1;arcSize=10;dashed=0;fontSize=12;strokeColor=#FF0000;fillColor=#FFF2CC;" parent="NbL5csSl9PgMOPHOTbrk-1" vertex="1">
          <mxGeometry x="10" y="505" width="141.5" height="40" as="geometry" />
        </mxCell>
        <mxCell id="_6ze0SiyMvSnPd6XlcF5-44" value="" style="edgeStyle=orthogonalEdgeStyle;rounded=0;orthogonalLoop=1;jettySize=auto;html=1;fontSize=12;" parent="NbL5csSl9PgMOPHOTbrk-1" source="_6ze0SiyMvSnPd6XlcF5-36" target="_6ze0SiyMvSnPd6XlcF5-43" edge="1">
          <mxGeometry relative="1" as="geometry" />
        </mxCell>
        <mxCell id="_6ze0SiyMvSnPd6XlcF5-36" value="Assinatura da DC" style="html=1;align=center;verticalAlign=middle;rounded=1;absoluteArcSize=1;arcSize=10;dashed=0;fontSize=12;strokeColor=#FF0000;fillColor=#FFF2CC;" parent="NbL5csSl9PgMOPHOTbrk-1" vertex="1">
          <mxGeometry x="26.5" y="570" width="108.5" height="40" as="geometry" />
        </mxCell>
        <mxCell id="_6ze0SiyMvSnPd6XlcF5-42" value="" style="edgeStyle=orthogonalEdgeStyle;rounded=0;orthogonalLoop=1;jettySize=auto;html=1;fontSize=12;exitX=0.5;exitY=0.5;exitDx=0;exitDy=0;exitPerimeter=0;" parent="NbL5csSl9PgMOPHOTbrk-1" source="_6ze0SiyMvSnPd6XlcF5-40" target="_6ze0SiyMvSnPd6XlcF5-36" edge="1">
          <mxGeometry relative="1" as="geometry">
            <mxPoint x="170" y="590" as="sourcePoint" />
          </mxGeometry>
        </mxCell>
        <mxCell id="_6ze0SiyMvSnPd6XlcF5-40" value="Diretor&lt;br&gt;Clínica" style="shape=umlActor;verticalLabelPosition=bottom;verticalAlign=top;html=1;fontSize=12;strokeColor=#FF0000;fillColor=#FFF2CC;" parent="NbL5csSl9PgMOPHOTbrk-1" vertex="1">
          <mxGeometry x="180" y="560" width="30" height="60" as="geometry" />
        </mxCell>
        <mxCell id="_6ze0SiyMvSnPd6XlcF5-43" value="Declaração&lt;br&gt;assinada" style="html=1;fontSize=12;strokeColor=#FF0000;fillColor=#FFF2CC;" parent="NbL5csSl9PgMOPHOTbrk-1" vertex="1">
          <mxGeometry x="24.25" y="660" width="110" height="40" as="geometry" />
        </mxCell>
        <mxCell id="f50e_enerKAIIumE485m-0" value="AS - Ex 1.3-a&lt;br&gt;Grupo 601 (DA, , , )&lt;br&gt;v2022/03/087" style="shape=note2;boundedLbl=1;whiteSpace=wrap;html=1;size=10;verticalAlign=top;align=left;" vertex="1" parent="NbL5csSl9PgMOPHOTbrk-1">
          <mxGeometry x="39.5" y="830" width="141" height="60" as="geometry" />
        </mxCell>
        <mxCell id="NbL5csSl9PgMOPHOTbrk-2" value="ARS" style="swimlane;startSize=20;strokeColor=#FF0000;fillColor=#FFF2CC;verticalAlign=middle;" parent="NbL5csSl9PgMOPHOTbrk-0" vertex="1">
          <mxGeometry x="220" y="20" width="220" height="910" as="geometry" />
        </mxCell>
        <mxCell id="NbL5csSl9PgMOPHOTbrk-11" value="Envio de dados para OMS" style="rounded=1;whiteSpace=wrap;html=1;fillColor=#FFF2CC;strokeColor=#FF0000;verticalAlign=middle;" parent="NbL5csSl9PgMOPHOTbrk-2" vertex="1">
          <mxGeometry x="50" y="30" width="120" height="40" as="geometry" />
        </mxCell>
        <mxCell id="_6ze0SiyMvSnPd6XlcF5-6" value="Pedido da informação&lt;br&gt;constante no regulador" style="html=1;align=center;verticalAlign=top;rounded=1;absoluteArcSize=1;arcSize=10;dashed=0;fontSize=12;strokeColor=#FF0000;fillColor=#FFF2CC;" parent="NbL5csSl9PgMOPHOTbrk-2" vertex="1">
          <mxGeometry x="40" y="250" width="140" height="40" as="geometry" />
        </mxCell>
        <mxCell id="_6ze0SiyMvSnPd6XlcF5-22" value="" style="edgeStyle=orthogonalEdgeStyle;rounded=0;orthogonalLoop=1;jettySize=auto;html=1;fontSize=12;" parent="NbL5csSl9PgMOPHOTbrk-2" source="_6ze0SiyMvSnPd6XlcF5-19" target="_6ze0SiyMvSnPd6XlcF5-21" edge="1">
          <mxGeometry relative="1" as="geometry" />
        </mxCell>
        <mxCell id="_6ze0SiyMvSnPd6XlcF5-19" value="Verificação dos dados" style="whiteSpace=wrap;html=1;verticalAlign=middle;fillColor=#FFF2CC;strokeColor=#FF0000;rounded=1;arcSize=10;dashed=0;" parent="NbL5csSl9PgMOPHOTbrk-2" vertex="1">
          <mxGeometry x="40" y="310" width="140" height="40" as="geometry" />
        </mxCell>
        <mxCell id="_6ze0SiyMvSnPd6XlcF5-29" style="edgeStyle=orthogonalEdgeStyle;rounded=0;orthogonalLoop=1;jettySize=auto;html=1;exitX=0.5;exitY=1;exitDx=0;exitDy=0;entryX=0;entryY=0;entryDx=40;entryDy=0;entryPerimeter=0;fontSize=12;" parent="NbL5csSl9PgMOPHOTbrk-2" source="_6ze0SiyMvSnPd6XlcF5-21" target="_6ze0SiyMvSnPd6XlcF5-25" edge="1">
          <mxGeometry relative="1" as="geometry" />
        </mxCell>
        <mxCell id="_6ze0SiyMvSnPd6XlcF5-53" style="edgeStyle=orthogonalEdgeStyle;rounded=0;orthogonalLoop=1;jettySize=auto;html=1;exitX=1;exitY=0.5;exitDx=0;exitDy=0;entryX=1;entryY=0;entryDx=0;entryDy=0;fontSize=12;" parent="NbL5csSl9PgMOPHOTbrk-2" source="_6ze0SiyMvSnPd6XlcF5-21" target="_6ze0SiyMvSnPd6XlcF5-51" edge="1">
          <mxGeometry relative="1" as="geometry">
            <Array as="points">
              <mxPoint x="200" y="395" />
              <mxPoint x="200" y="874" />
            </Array>
          </mxGeometry>
        </mxCell>
        <mxCell id="_6ze0SiyMvSnPd6XlcF5-21" value="Válidos ?" style="rhombus;strokeColor=#FF0000;fillColor=#FFF2CC;verticalAlign=middle;" parent="NbL5csSl9PgMOPHOTbrk-2" vertex="1">
          <mxGeometry x="72.5" y="380" width="75" height="30" as="geometry" />
        </mxCell>
        <mxCell id="_6ze0SiyMvSnPd6XlcF5-25" value="Aprovado" style="html=1;shape=mxgraph.infographic.ribbonSimple;notch1=0;notch2=20;align=center;verticalAlign=middle;fontSize=14;fontStyle=0;fillColor=#FFFFFF;strokeColor=#FF0000;" parent="NbL5csSl9PgMOPHOTbrk-2" vertex="1">
          <mxGeometry x="70" y="450" width="80" height="40" as="geometry" />
        </mxCell>
        <mxCell id="_6ze0SiyMvSnPd6XlcF5-27" value="Sim" style="text;html=1;strokeColor=none;fillColor=none;align=center;verticalAlign=middle;whiteSpace=wrap;rounded=0;fontSize=12;" parent="NbL5csSl9PgMOPHOTbrk-2" vertex="1">
          <mxGeometry x="50" y="410" width="60" height="30" as="geometry" />
        </mxCell>
        <mxCell id="_6ze0SiyMvSnPd6XlcF5-45" value="Validação da Clínica" style="html=1;align=center;verticalAlign=middle;rounded=1;absoluteArcSize=1;arcSize=10;dashed=0;fontSize=12;strokeColor=#FF0000;fillColor=#FFF2CC;" parent="NbL5csSl9PgMOPHOTbrk-2" vertex="1">
          <mxGeometry x="40" y="660" width="140" height="40" as="geometry" />
        </mxCell>
        <mxCell id="_6ze0SiyMvSnPd6XlcF5-57" style="edgeStyle=orthogonalEdgeStyle;rounded=0;orthogonalLoop=1;jettySize=auto;html=1;exitX=0;exitY=0.5;exitDx=0;exitDy=0;entryX=0;entryY=0.5;entryDx=0;entryDy=0;fontSize=12;" parent="NbL5csSl9PgMOPHOTbrk-2" source="_6ze0SiyMvSnPd6XlcF5-47" target="_6ze0SiyMvSnPd6XlcF5-51" edge="1">
          <mxGeometry relative="1" as="geometry">
            <Array as="points">
              <mxPoint x="30" y="745" />
              <mxPoint x="30" y="885" />
            </Array>
          </mxGeometry>
        </mxCell>
        <mxCell id="_6ze0SiyMvSnPd6XlcF5-47" value="Válidos ?" style="rhombus;whiteSpace=wrap;html=1;fillColor=#FFF2CC;strokeColor=#FF0000;rounded=1;arcSize=0;dashed=0;verticalAlign=middle;" parent="NbL5csSl9PgMOPHOTbrk-2" vertex="1">
          <mxGeometry x="70" y="730" width="80" height="30" as="geometry" />
        </mxCell>
        <mxCell id="_6ze0SiyMvSnPd6XlcF5-48" value="" style="edgeStyle=orthogonalEdgeStyle;rounded=0;orthogonalLoop=1;jettySize=auto;html=1;fontSize=12;" parent="NbL5csSl9PgMOPHOTbrk-2" source="_6ze0SiyMvSnPd6XlcF5-45" target="_6ze0SiyMvSnPd6XlcF5-47" edge="1">
          <mxGeometry relative="1" as="geometry" />
        </mxCell>
        <mxCell id="_6ze0SiyMvSnPd6XlcF5-52" value="" style="edgeStyle=orthogonalEdgeStyle;rounded=0;orthogonalLoop=1;jettySize=auto;html=1;fontSize=12;" parent="NbL5csSl9PgMOPHOTbrk-2" source="_6ze0SiyMvSnPd6XlcF5-49" target="_6ze0SiyMvSnPd6XlcF5-51" edge="1">
          <mxGeometry relative="1" as="geometry" />
        </mxCell>
        <mxCell id="_6ze0SiyMvSnPd6XlcF5-49" value="Clínica adicionada&lt;br&gt;à listagem pública" style="whiteSpace=wrap;html=1;fillColor=#FFF2CC;strokeColor=#FF0000;rounded=1;arcSize=19;dashed=0;" parent="NbL5csSl9PgMOPHOTbrk-2" vertex="1">
          <mxGeometry x="50" y="800" width="120" height="45" as="geometry" />
        </mxCell>
        <mxCell id="_6ze0SiyMvSnPd6XlcF5-50" value="" style="edgeStyle=orthogonalEdgeStyle;rounded=0;orthogonalLoop=1;jettySize=auto;html=1;fontSize=12;" parent="NbL5csSl9PgMOPHOTbrk-2" source="_6ze0SiyMvSnPd6XlcF5-47" target="_6ze0SiyMvSnPd6XlcF5-49" edge="1">
          <mxGeometry relative="1" as="geometry" />
        </mxCell>
        <mxCell id="_6ze0SiyMvSnPd6XlcF5-51" value="" style="ellipse;html=1;shape=endState;fillColor=#000000;strokeColor=#000000;fontSize=12;" parent="NbL5csSl9PgMOPHOTbrk-2" vertex="1">
          <mxGeometry x="95" y="870" width="30" height="30" as="geometry" />
        </mxCell>
        <mxCell id="_6ze0SiyMvSnPd6XlcF5-56" value="Não" style="text;html=1;strokeColor=none;fillColor=none;align=center;verticalAlign=middle;whiteSpace=wrap;rounded=0;fontSize=12;" parent="NbL5csSl9PgMOPHOTbrk-2" vertex="1">
          <mxGeometry x="147.5" y="370" width="60" height="30" as="geometry" />
        </mxCell>
        <mxCell id="_6ze0SiyMvSnPd6XlcF5-58" value="Não" style="text;html=1;strokeColor=none;fillColor=none;align=center;verticalAlign=middle;whiteSpace=wrap;rounded=0;fontSize=12;" parent="NbL5csSl9PgMOPHOTbrk-2" vertex="1">
          <mxGeometry x="20" y="720" width="60" height="30" as="geometry" />
        </mxCell>
        <mxCell id="_6ze0SiyMvSnPd6XlcF5-59" value="Sim" style="text;html=1;strokeColor=none;fillColor=none;align=center;verticalAlign=middle;whiteSpace=wrap;rounded=0;fontSize=12;" parent="NbL5csSl9PgMOPHOTbrk-2" vertex="1">
          <mxGeometry x="95" y="760" width="60" height="30" as="geometry" />
        </mxCell>
        <mxCell id="NbL5csSl9PgMOPHOTbrk-3" value="OMD" style="swimlane;startSize=20;strokeColor=#FF0000;fillColor=#FFF2CC;" parent="NbL5csSl9PgMOPHOTbrk-0" vertex="1">
          <mxGeometry x="440" y="20" width="180" height="910" as="geometry">
            <mxRectangle x="440" y="20" width="30" height="470" as="alternateBounds" />
          </mxGeometry>
        </mxCell>
        <mxCell id="NbL5csSl9PgMOPHOTbrk-22" value="" style="edgeStyle=orthogonalEdgeStyle;rounded=0;orthogonalLoop=1;jettySize=auto;html=1;" parent="NbL5csSl9PgMOPHOTbrk-3" source="NbL5csSl9PgMOPHOTbrk-16" target="NbL5csSl9PgMOPHOTbrk-18" edge="1">
          <mxGeometry relative="1" as="geometry" />
        </mxCell>
        <mxCell id="NbL5csSl9PgMOPHOTbrk-16" value="Validação de&lt;br&gt;habilitação" style="html=1;align=center;verticalAlign=middle;rounded=1;absoluteArcSize=1;arcSize=10;dashed=0;strokeColor=#FF0000;fillColor=#FFF2CC;" parent="NbL5csSl9PgMOPHOTbrk-3" vertex="1">
          <mxGeometry x="20" y="30" width="140" height="40" as="geometry" />
        </mxCell>
        <mxCell id="NbL5csSl9PgMOPHOTbrk-36" value="" style="edgeStyle=orthogonalEdgeStyle;rounded=0;orthogonalLoop=1;jettySize=auto;html=1;fontSize=12;" parent="NbL5csSl9PgMOPHOTbrk-3" source="NbL5csSl9PgMOPHOTbrk-18" target="NbL5csSl9PgMOPHOTbrk-35" edge="1">
          <mxGeometry relative="1" as="geometry" />
        </mxCell>
        <mxCell id="NbL5csSl9PgMOPHOTbrk-18" value="Válidos ?" style="rhombus;strokeColor=#FF0000;fillColor=#FFF2CC;verticalAlign=middle;" parent="NbL5csSl9PgMOPHOTbrk-3" vertex="1">
          <mxGeometry x="52.5" y="90" width="75" height="30" as="geometry" />
        </mxCell>
        <mxCell id="NbL5csSl9PgMOPHOTbrk-35" value="Credenciais" style="html=1;fontSize=12;strokeColor=#FF0000;fillColor=#FFF2CC;verticalAlign=middle;" parent="NbL5csSl9PgMOPHOTbrk-3" vertex="1">
          <mxGeometry x="40" y="160" width="100" height="40" as="geometry" />
        </mxCell>
        <mxCell id="NbL5csSl9PgMOPHOTbrk-41" value="Sim" style="text;html=1;strokeColor=none;fillColor=none;align=center;verticalAlign=middle;whiteSpace=wrap;rounded=0;fontSize=12;" parent="NbL5csSl9PgMOPHOTbrk-3" vertex="1">
          <mxGeometry x="40" y="120" width="60" height="30" as="geometry" />
        </mxCell>
        <mxCell id="_6ze0SiyMvSnPd6XlcF5-55" value="Não" style="text;html=1;strokeColor=none;fillColor=none;align=center;verticalAlign=middle;whiteSpace=wrap;rounded=0;fontSize=12;" parent="NbL5csSl9PgMOPHOTbrk-3" vertex="1">
          <mxGeometry x="110" y="80" width="60" height="30" as="geometry" />
        </mxCell>
        <mxCell id="_6ze0SiyMvSnPd6XlcF5-8" value="ERS" style="swimlane;startSize=20;strokeColor=#FF0000;fillColor=#FFF2CC;" parent="NbL5csSl9PgMOPHOTbrk-0" vertex="1">
          <mxGeometry x="620" y="20" width="190" height="910" as="geometry">
            <mxRectangle x="440" y="20" width="30" height="470" as="alternateBounds" />
          </mxGeometry>
        </mxCell>
        <mxCell id="_6ze0SiyMvSnPd6XlcF5-9" value="" style="edgeStyle=orthogonalEdgeStyle;rounded=0;orthogonalLoop=1;jettySize=auto;html=1;" parent="_6ze0SiyMvSnPd6XlcF5-8" edge="1">
          <mxGeometry relative="1" as="geometry">
            <mxPoint x="130.0588235294117" y="90.02352941176468" as="targetPoint" />
          </mxGeometry>
        </mxCell>
        <mxCell id="_6ze0SiyMvSnPd6XlcF5-11" value="" style="edgeStyle=orthogonalEdgeStyle;rounded=0;orthogonalLoop=1;jettySize=auto;html=1;fontSize=12;" parent="_6ze0SiyMvSnPd6XlcF5-8" edge="1">
          <mxGeometry relative="1" as="geometry">
            <mxPoint x="130" y="160" as="targetPoint" />
          </mxGeometry>
        </mxCell>
        <mxCell id="_6ze0SiyMvSnPd6XlcF5-18" value="" style="edgeStyle=orthogonalEdgeStyle;rounded=0;orthogonalLoop=1;jettySize=auto;html=1;fontSize=12;" parent="_6ze0SiyMvSnPd6XlcF5-8" source="_6ze0SiyMvSnPd6XlcF5-15" target="_6ze0SiyMvSnPd6XlcF5-17" edge="1">
          <mxGeometry relative="1" as="geometry" />
        </mxCell>
        <mxCell id="_6ze0SiyMvSnPd6XlcF5-15" value="Fornecimento de dados&lt;br&gt;da Cllínica" style="html=1;align=center;verticalAlign=top;rounded=1;absoluteArcSize=1;arcSize=10;dashed=0;fontSize=12;strokeColor=#FF0000;fillColor=#FFF2CC;" parent="_6ze0SiyMvSnPd6XlcF5-8" vertex="1">
          <mxGeometry x="30" y="30" width="140" height="40" as="geometry" />
        </mxCell>
        <mxCell id="_6ze0SiyMvSnPd6XlcF5-17" value="Dados da Clínica" style="whiteSpace=wrap;html=1;verticalAlign=middle;fillColor=#FFF2CC;strokeColor=#FF0000;rounded=1;arcSize=0;dashed=0;" parent="_6ze0SiyMvSnPd6XlcF5-8" vertex="1">
          <mxGeometry x="40" y="110" width="120" height="40" as="geometry" />
        </mxCell>
        <mxCell id="NbL5csSl9PgMOPHOTbrk-17" style="edgeStyle=orthogonalEdgeStyle;rounded=0;orthogonalLoop=1;jettySize=auto;html=1;exitX=1;exitY=0.5;exitDx=0;exitDy=0;entryX=0;entryY=0.5;entryDx=0;entryDy=0;" parent="NbL5csSl9PgMOPHOTbrk-0" source="NbL5csSl9PgMOPHOTbrk-11" target="NbL5csSl9PgMOPHOTbrk-16" edge="1">
          <mxGeometry relative="1" as="geometry" />
        </mxCell>
        <mxCell id="NbL5csSl9PgMOPHOTbrk-30" style="edgeStyle=orthogonalEdgeStyle;rounded=0;orthogonalLoop=1;jettySize=auto;html=1;exitX=1;exitY=0.5;exitDx=0;exitDy=0;entryX=0;entryY=0.5;entryDx=0;entryDy=0;fontSize=12;" parent="NbL5csSl9PgMOPHOTbrk-0" source="NbL5csSl9PgMOPHOTbrk-9" target="NbL5csSl9PgMOPHOTbrk-11" edge="1">
          <mxGeometry relative="1" as="geometry">
            <mxPoint x="141.25" y="245" as="sourcePoint" />
            <Array as="points">
              <mxPoint x="180" y="200" />
              <mxPoint x="180" y="70" />
            </Array>
          </mxGeometry>
        </mxCell>
        <mxCell id="NbL5csSl9PgMOPHOTbrk-38" style="edgeStyle=orthogonalEdgeStyle;rounded=0;orthogonalLoop=1;jettySize=auto;html=1;exitX=0;exitY=0.5;exitDx=0;exitDy=0;entryX=1;entryY=0.5;entryDx=0;entryDy=0;fontSize=12;" parent="NbL5csSl9PgMOPHOTbrk-0" source="NbL5csSl9PgMOPHOTbrk-35" target="NbL5csSl9PgMOPHOTbrk-37" edge="1">
          <mxGeometry relative="1" as="geometry" />
        </mxCell>
        <mxCell id="_6ze0SiyMvSnPd6XlcF5-7" style="edgeStyle=orthogonalEdgeStyle;rounded=0;orthogonalLoop=1;jettySize=auto;html=1;exitX=1;exitY=0.5;exitDx=0;exitDy=0;entryX=0;entryY=0.5;entryDx=0;entryDy=0;fontSize=12;" parent="NbL5csSl9PgMOPHOTbrk-0" source="_6ze0SiyMvSnPd6XlcF5-0" target="_6ze0SiyMvSnPd6XlcF5-6" edge="1">
          <mxGeometry relative="1" as="geometry">
            <Array as="points">
              <mxPoint x="136" y="390" />
              <mxPoint x="180" y="390" />
              <mxPoint x="180" y="290" />
            </Array>
          </mxGeometry>
        </mxCell>
        <mxCell id="_6ze0SiyMvSnPd6XlcF5-16" style="edgeStyle=orthogonalEdgeStyle;rounded=0;orthogonalLoop=1;jettySize=auto;html=1;exitX=1;exitY=0.5;exitDx=0;exitDy=0;entryX=0;entryY=0.5;entryDx=0;entryDy=0;fontSize=12;" parent="NbL5csSl9PgMOPHOTbrk-0" source="_6ze0SiyMvSnPd6XlcF5-6" target="_6ze0SiyMvSnPd6XlcF5-15" edge="1">
          <mxGeometry relative="1" as="geometry">
            <Array as="points">
              <mxPoint x="630" y="290" />
              <mxPoint x="630" y="70" />
            </Array>
          </mxGeometry>
        </mxCell>
        <mxCell id="_6ze0SiyMvSnPd6XlcF5-20" value="" style="edgeStyle=orthogonalEdgeStyle;rounded=0;orthogonalLoop=1;jettySize=auto;html=1;fontSize=12;exitX=0.5;exitY=1;exitDx=0;exitDy=0;" parent="NbL5csSl9PgMOPHOTbrk-0" source="_6ze0SiyMvSnPd6XlcF5-17" target="_6ze0SiyMvSnPd6XlcF5-19" edge="1">
          <mxGeometry relative="1" as="geometry">
            <mxPoint x="780" y="200" as="sourcePoint" />
            <Array as="points">
              <mxPoint x="720" y="350" />
            </Array>
          </mxGeometry>
        </mxCell>
        <mxCell id="_6ze0SiyMvSnPd6XlcF5-32" style="edgeStyle=orthogonalEdgeStyle;rounded=0;orthogonalLoop=1;jettySize=auto;html=1;exitX=0;exitY=0;exitDx=0;exitDy=20;exitPerimeter=0;entryX=0;entryY=0;entryDx=12;entryDy=20;entryPerimeter=0;fontSize=12;" parent="NbL5csSl9PgMOPHOTbrk-0" source="_6ze0SiyMvSnPd6XlcF5-25" target="_6ze0SiyMvSnPd6XlcF5-30" edge="1">
          <mxGeometry relative="1" as="geometry">
            <Array as="points">
              <mxPoint x="180" y="490" />
              <mxPoint x="180" y="470" />
            </Array>
          </mxGeometry>
        </mxCell>
        <mxCell id="_6ze0SiyMvSnPd6XlcF5-46" style="edgeStyle=orthogonalEdgeStyle;rounded=0;orthogonalLoop=1;jettySize=auto;html=1;exitX=1;exitY=0.5;exitDx=0;exitDy=0;entryX=0;entryY=0.5;entryDx=0;entryDy=0;fontSize=12;" parent="NbL5csSl9PgMOPHOTbrk-0" source="_6ze0SiyMvSnPd6XlcF5-43" target="_6ze0SiyMvSnPd6XlcF5-45" edge="1">
          <mxGeometry relative="1" as="geometry">
            <Array as="points">
              <mxPoint x="150" y="700" />
              <mxPoint x="150" y="700" />
            </Array>
          </mxGeometry>
        </mxCell>
        <mxCell id="_6ze0SiyMvSnPd6XlcF5-54" style="edgeStyle=orthogonalEdgeStyle;rounded=0;orthogonalLoop=1;jettySize=auto;html=1;exitX=1;exitY=0.5;exitDx=0;exitDy=0;fontSize=12;entryX=1;entryY=1;entryDx=0;entryDy=0;" parent="NbL5csSl9PgMOPHOTbrk-0" source="NbL5csSl9PgMOPHOTbrk-18" target="_6ze0SiyMvSnPd6XlcF5-51" edge="1">
          <mxGeometry relative="1" as="geometry">
            <mxPoint x="390" y="910" as="targetPoint" />
            <Array as="points">
              <mxPoint x="600" y="125" />
              <mxPoint x="600" y="916" />
            </Array>
          </mxGeometry>
        </mxCell>
      </root>
    </mxGraphModel>
  </diagram>
  <diagram name="ex1_3_improved" id="dWxHr8DQnTDIhAiBBckC">
    <mxGraphModel dx="1497" dy="731" grid="1" gridSize="10" guides="1" tooltips="1" connect="1" arrows="1" fold="1" page="1" pageScale="1" pageWidth="827" pageHeight="1169" math="0" shadow="0">
      <root>
        <mxCell id="pkHfYsxAeaRbyxhQVIz3-0" />
        <mxCell id="pkHfYsxAeaRbyxhQVIz3-1" parent="pkHfYsxAeaRbyxhQVIz3-0" />
        <mxCell id="pkHfYsxAeaRbyxhQVIz3-2" value="Pool" style="swimlane;childLayout=stackLayout;resizeParent=1;resizeParentMax=0;startSize=20;strokeColor=default;fillColor=default;align=center;verticalAlign=top;" parent="pkHfYsxAeaRbyxhQVIz3-1" vertex="1">
          <mxGeometry x="60" y="30" width="790" height="930" as="geometry" />
        </mxCell>
        <mxCell id="pkHfYsxAeaRbyxhQVIz3-3" value="Médico" style="swimlane;startSize=20;strokeColor=#FF0000;fillColor=#FFF2CC;" parent="pkHfYsxAeaRbyxhQVIz3-2" vertex="1">
          <mxGeometry y="20" width="220" height="910" as="geometry" />
        </mxCell>
        <mxCell id="pkHfYsxAeaRbyxhQVIz3-4" value="" style="edgeStyle=orthogonalEdgeStyle;rounded=0;orthogonalLoop=1;jettySize=auto;html=1;exitX=0.5;exitY=1;exitDx=0;exitDy=0;" parent="pkHfYsxAeaRbyxhQVIz3-3" source="pkHfYsxAeaRbyxhQVIz3-5" target="pkHfYsxAeaRbyxhQVIz3-7" edge="1">
          <mxGeometry relative="1" as="geometry">
            <mxPoint x="79.25" y="70" as="sourcePoint" />
          </mxGeometry>
        </mxCell>
        <mxCell id="pkHfYsxAeaRbyxhQVIz3-5" value="" style="ellipse;fillColor=#000000;strokeColor=none;" parent="pkHfYsxAeaRbyxhQVIz3-3" vertex="1">
          <mxGeometry x="64.25" y="30" width="30" height="30" as="geometry" />
        </mxCell>
        <mxCell id="pkHfYsxAeaRbyxhQVIz3-6" value="" style="edgeStyle=orthogonalEdgeStyle;rounded=0;orthogonalLoop=1;jettySize=auto;html=1;" parent="pkHfYsxAeaRbyxhQVIz3-3" source="pkHfYsxAeaRbyxhQVIz3-7" target="pkHfYsxAeaRbyxhQVIz3-8" edge="1">
          <mxGeometry relative="1" as="geometry" />
        </mxCell>
        <mxCell id="pkHfYsxAeaRbyxhQVIz3-7" value="Preenchimento de&lt;br&gt;formulário" style="html=1;align=center;verticalAlign=middle;rounded=1;absoluteArcSize=1;arcSize=10;dashed=0;strokeColor=#FF0000;fillColor=#FFF2CC;" parent="pkHfYsxAeaRbyxhQVIz3-3" vertex="1">
          <mxGeometry x="21.75" y="90" width="115" height="40" as="geometry" />
        </mxCell>
        <mxCell id="pkHfYsxAeaRbyxhQVIz3-8" value="Dados do Médico" style="html=1;strokeColor=#FF0000;fillColor=#FFF2CC;verticalAlign=middle;" parent="pkHfYsxAeaRbyxhQVIz3-3" vertex="1">
          <mxGeometry x="21.75" y="160" width="115" height="40" as="geometry" />
        </mxCell>
        <mxCell id="pkHfYsxAeaRbyxhQVIz3-9" value="Entrada no sistema" style="html=1;align=center;verticalAlign=middle;rounded=1;absoluteArcSize=1;arcSize=10;dashed=0;fontSize=12;strokeColor=#FF0000;fillColor=#FFF2CC;" parent="pkHfYsxAeaRbyxhQVIz3-3" vertex="1">
          <mxGeometry x="22.25" y="220" width="117" height="40" as="geometry" />
        </mxCell>
        <mxCell id="pkHfYsxAeaRbyxhQVIz3-10" value="" style="edgeStyle=orthogonalEdgeStyle;rounded=0;orthogonalLoop=1;jettySize=auto;html=1;fontSize=12;" parent="pkHfYsxAeaRbyxhQVIz3-3" source="pkHfYsxAeaRbyxhQVIz3-11" target="pkHfYsxAeaRbyxhQVIz3-13" edge="1">
          <mxGeometry relative="1" as="geometry" />
        </mxCell>
        <mxCell id="pkHfYsxAeaRbyxhQVIz3-11" value="Pedido de adesão&lt;br&gt;de clínica" style="html=1;align=center;verticalAlign=middle;rounded=1;absoluteArcSize=1;arcSize=10;dashed=0;fontSize=12;strokeColor=#FF0000;fillColor=#FFF2CC;" parent="pkHfYsxAeaRbyxhQVIz3-3" vertex="1">
          <mxGeometry x="22.25" y="290" width="117" height="40" as="geometry" />
        </mxCell>
        <mxCell id="pkHfYsxAeaRbyxhQVIz3-12" value="" style="edgeStyle=orthogonalEdgeStyle;rounded=0;orthogonalLoop=1;jettySize=auto;html=1;fontSize=12;" parent="pkHfYsxAeaRbyxhQVIz3-3" source="pkHfYsxAeaRbyxhQVIz3-9" target="pkHfYsxAeaRbyxhQVIz3-11" edge="1">
          <mxGeometry relative="1" as="geometry" />
        </mxCell>
        <mxCell id="pkHfYsxAeaRbyxhQVIz3-13" value="Habilitações da&lt;br&gt;Clínica" style="html=1;fontSize=12;strokeColor=#FF0000;fillColor=#FFF2CC;" parent="pkHfYsxAeaRbyxhQVIz3-3" vertex="1">
          <mxGeometry x="25.75" y="360" width="110" height="40" as="geometry" />
        </mxCell>
        <mxCell id="pkHfYsxAeaRbyxhQVIz3-14" value="" style="edgeStyle=orthogonalEdgeStyle;rounded=0;orthogonalLoop=1;jettySize=auto;html=1;fontSize=12;" parent="pkHfYsxAeaRbyxhQVIz3-3" source="pkHfYsxAeaRbyxhQVIz3-15" target="pkHfYsxAeaRbyxhQVIz3-17" edge="1">
          <mxGeometry relative="1" as="geometry" />
        </mxCell>
        <mxCell id="pkHfYsxAeaRbyxhQVIz3-15" value="Confirmação" style="html=1;shape=mxgraph.infographic.ribbonSimple;notch1=12;notch2=0;align=center;verticalAlign=middle;fontSize=14;fontStyle=0;flipH=1;fillColor=#FFFFFF;strokeColor=#FF0000;" parent="pkHfYsxAeaRbyxhQVIz3-3" vertex="1">
          <mxGeometry x="23.25" y="430" width="115" height="40" as="geometry" />
        </mxCell>
        <mxCell id="pkHfYsxAeaRbyxhQVIz3-16" value="" style="edgeStyle=orthogonalEdgeStyle;rounded=0;orthogonalLoop=1;jettySize=auto;html=1;fontSize=12;" parent="pkHfYsxAeaRbyxhQVIz3-3" source="pkHfYsxAeaRbyxhQVIz3-17" target="pkHfYsxAeaRbyxhQVIz3-19" edge="1">
          <mxGeometry relative="1" as="geometry" />
        </mxCell>
        <mxCell id="pkHfYsxAeaRbyxhQVIz3-17" value="Aceitar condições&lt;br&gt;de acesso + imprimir DC" style="html=1;align=center;verticalAlign=top;rounded=1;absoluteArcSize=1;arcSize=10;dashed=0;fontSize=12;strokeColor=#FF0000;fillColor=#FFF2CC;" parent="pkHfYsxAeaRbyxhQVIz3-3" vertex="1">
          <mxGeometry x="10" y="505" width="141.5" height="40" as="geometry" />
        </mxCell>
        <mxCell id="pkHfYsxAeaRbyxhQVIz3-18" value="" style="edgeStyle=orthogonalEdgeStyle;rounded=0;orthogonalLoop=1;jettySize=auto;html=1;fontSize=12;" parent="pkHfYsxAeaRbyxhQVIz3-3" source="pkHfYsxAeaRbyxhQVIz3-19" target="pkHfYsxAeaRbyxhQVIz3-22" edge="1">
          <mxGeometry relative="1" as="geometry" />
        </mxCell>
        <mxCell id="pkHfYsxAeaRbyxhQVIz3-19" value="Assinatura da DC" style="html=1;align=center;verticalAlign=middle;rounded=1;absoluteArcSize=1;arcSize=10;dashed=0;fontSize=12;strokeColor=#FF0000;fillColor=#FFF2CC;" parent="pkHfYsxAeaRbyxhQVIz3-3" vertex="1">
          <mxGeometry x="26.5" y="570" width="108.5" height="40" as="geometry" />
        </mxCell>
        <mxCell id="pkHfYsxAeaRbyxhQVIz3-20" value="" style="edgeStyle=orthogonalEdgeStyle;rounded=0;orthogonalLoop=1;jettySize=auto;html=1;fontSize=12;exitX=0.5;exitY=0.5;exitDx=0;exitDy=0;exitPerimeter=0;" parent="pkHfYsxAeaRbyxhQVIz3-3" source="pkHfYsxAeaRbyxhQVIz3-21" target="pkHfYsxAeaRbyxhQVIz3-19" edge="1">
          <mxGeometry relative="1" as="geometry">
            <mxPoint x="170" y="590" as="sourcePoint" />
          </mxGeometry>
        </mxCell>
        <mxCell id="pkHfYsxAeaRbyxhQVIz3-21" value="Diretor&lt;br&gt;Clínica" style="shape=umlActor;verticalLabelPosition=bottom;verticalAlign=top;html=1;fontSize=12;strokeColor=#FF0000;fillColor=#FFF2CC;" parent="pkHfYsxAeaRbyxhQVIz3-3" vertex="1">
          <mxGeometry x="180" y="560" width="30" height="60" as="geometry" />
        </mxCell>
        <mxCell id="pkHfYsxAeaRbyxhQVIz3-22" value="Declaração&lt;br&gt;assinada" style="html=1;fontSize=12;strokeColor=#FF0000;fillColor=#FFF2CC;" parent="pkHfYsxAeaRbyxhQVIz3-3" vertex="1">
          <mxGeometry x="25.75" y="660" width="110" height="40" as="geometry" />
        </mxCell>
        <mxCell id="BmDsdpr4DSFm398T3MZT-0" value="AS - Ex 1.3-b&lt;br&gt;Grupo 601 (DA, , , )&lt;br&gt;v2022/03/087" style="shape=note2;boundedLbl=1;whiteSpace=wrap;html=1;size=10;verticalAlign=top;align=left;" vertex="1" parent="pkHfYsxAeaRbyxhQVIz3-3">
          <mxGeometry x="49" y="830" width="141" height="60" as="geometry" />
        </mxCell>
        <mxCell id="pkHfYsxAeaRbyxhQVIz3-23" value="ARS" style="swimlane;startSize=20;strokeColor=#FF0000;fillColor=#FFF2CC;verticalAlign=middle;" parent="pkHfYsxAeaRbyxhQVIz3-2" vertex="1">
          <mxGeometry x="220" y="20" width="200" height="910" as="geometry" />
        </mxCell>
        <mxCell id="pkHfYsxAeaRbyxhQVIz3-33" value="Validação da Clínica" style="html=1;align=center;verticalAlign=middle;rounded=1;absoluteArcSize=1;arcSize=10;dashed=0;fontSize=12;strokeColor=#FF0000;fillColor=#FFF2CC;" parent="pkHfYsxAeaRbyxhQVIz3-23" vertex="1">
          <mxGeometry x="40" y="660" width="140" height="40" as="geometry" />
        </mxCell>
        <mxCell id="pkHfYsxAeaRbyxhQVIz3-34" style="edgeStyle=orthogonalEdgeStyle;rounded=0;orthogonalLoop=1;jettySize=auto;html=1;exitX=0;exitY=0.5;exitDx=0;exitDy=0;entryX=0;entryY=0.5;entryDx=0;entryDy=0;fontSize=12;" parent="pkHfYsxAeaRbyxhQVIz3-23" source="pkHfYsxAeaRbyxhQVIz3-35" target="pkHfYsxAeaRbyxhQVIz3-40" edge="1">
          <mxGeometry relative="1" as="geometry">
            <Array as="points">
              <mxPoint x="30" y="745" />
              <mxPoint x="30" y="885" />
            </Array>
          </mxGeometry>
        </mxCell>
        <mxCell id="pkHfYsxAeaRbyxhQVIz3-35" value="Válidos ?" style="rhombus;whiteSpace=wrap;html=1;fillColor=#FFF2CC;strokeColor=#FF0000;rounded=1;arcSize=0;dashed=0;verticalAlign=middle;" parent="pkHfYsxAeaRbyxhQVIz3-23" vertex="1">
          <mxGeometry x="70" y="730" width="80" height="30" as="geometry" />
        </mxCell>
        <mxCell id="pkHfYsxAeaRbyxhQVIz3-36" value="" style="edgeStyle=orthogonalEdgeStyle;rounded=0;orthogonalLoop=1;jettySize=auto;html=1;fontSize=12;" parent="pkHfYsxAeaRbyxhQVIz3-23" source="pkHfYsxAeaRbyxhQVIz3-33" target="pkHfYsxAeaRbyxhQVIz3-35" edge="1">
          <mxGeometry relative="1" as="geometry" />
        </mxCell>
        <mxCell id="pkHfYsxAeaRbyxhQVIz3-37" value="" style="edgeStyle=orthogonalEdgeStyle;rounded=0;orthogonalLoop=1;jettySize=auto;html=1;fontSize=12;" parent="pkHfYsxAeaRbyxhQVIz3-23" source="pkHfYsxAeaRbyxhQVIz3-38" target="pkHfYsxAeaRbyxhQVIz3-40" edge="1">
          <mxGeometry relative="1" as="geometry" />
        </mxCell>
        <mxCell id="pkHfYsxAeaRbyxhQVIz3-38" value="Clínica adicionada&lt;br&gt;à listagem pública" style="whiteSpace=wrap;html=1;fillColor=#FFF2CC;strokeColor=#FF0000;rounded=1;arcSize=19;dashed=0;" parent="pkHfYsxAeaRbyxhQVIz3-23" vertex="1">
          <mxGeometry x="50" y="800" width="120" height="45" as="geometry" />
        </mxCell>
        <mxCell id="pkHfYsxAeaRbyxhQVIz3-39" value="" style="edgeStyle=orthogonalEdgeStyle;rounded=0;orthogonalLoop=1;jettySize=auto;html=1;fontSize=12;" parent="pkHfYsxAeaRbyxhQVIz3-23" source="pkHfYsxAeaRbyxhQVIz3-35" target="pkHfYsxAeaRbyxhQVIz3-38" edge="1">
          <mxGeometry relative="1" as="geometry" />
        </mxCell>
        <mxCell id="pkHfYsxAeaRbyxhQVIz3-40" value="" style="ellipse;html=1;shape=endState;fillColor=#000000;strokeColor=#000000;fontSize=12;" parent="pkHfYsxAeaRbyxhQVIz3-23" vertex="1">
          <mxGeometry x="95" y="870" width="30" height="30" as="geometry" />
        </mxCell>
        <mxCell id="pkHfYsxAeaRbyxhQVIz3-42" value="Não" style="text;html=1;strokeColor=none;fillColor=none;align=center;verticalAlign=middle;whiteSpace=wrap;rounded=0;fontSize=12;" parent="pkHfYsxAeaRbyxhQVIz3-23" vertex="1">
          <mxGeometry x="20" y="720" width="60" height="30" as="geometry" />
        </mxCell>
        <mxCell id="pkHfYsxAeaRbyxhQVIz3-43" value="Sim" style="text;html=1;strokeColor=none;fillColor=none;align=center;verticalAlign=middle;whiteSpace=wrap;rounded=0;fontSize=12;" parent="pkHfYsxAeaRbyxhQVIz3-23" vertex="1">
          <mxGeometry x="95" y="760" width="60" height="30" as="geometry" />
        </mxCell>
        <mxCell id="pkHfYsxAeaRbyxhQVIz3-46" value="OMD" style="swimlane;startSize=20;strokeColor=#FF0000;fillColor=#FFF2CC;" parent="pkHfYsxAeaRbyxhQVIz3-2" vertex="1">
          <mxGeometry x="420" y="20" width="180" height="910" as="geometry">
            <mxRectangle x="440" y="20" width="30" height="470" as="alternateBounds" />
          </mxGeometry>
        </mxCell>
        <mxCell id="pkHfYsxAeaRbyxhQVIz3-47" value="" style="edgeStyle=orthogonalEdgeStyle;rounded=0;orthogonalLoop=1;jettySize=auto;html=1;" parent="pkHfYsxAeaRbyxhQVIz3-46" source="pkHfYsxAeaRbyxhQVIz3-48" target="pkHfYsxAeaRbyxhQVIz3-50" edge="1">
          <mxGeometry relative="1" as="geometry" />
        </mxCell>
        <mxCell id="pkHfYsxAeaRbyxhQVIz3-48" value="Validação de&lt;br&gt;habilitação" style="html=1;align=center;verticalAlign=middle;rounded=1;absoluteArcSize=1;arcSize=10;dashed=0;strokeColor=#FF0000;fillColor=#FFF2CC;" parent="pkHfYsxAeaRbyxhQVIz3-46" vertex="1">
          <mxGeometry x="20" y="30" width="140" height="40" as="geometry" />
        </mxCell>
        <mxCell id="pkHfYsxAeaRbyxhQVIz3-49" value="" style="edgeStyle=orthogonalEdgeStyle;rounded=0;orthogonalLoop=1;jettySize=auto;html=1;fontSize=12;" parent="pkHfYsxAeaRbyxhQVIz3-46" source="pkHfYsxAeaRbyxhQVIz3-50" target="pkHfYsxAeaRbyxhQVIz3-51" edge="1">
          <mxGeometry relative="1" as="geometry" />
        </mxCell>
        <mxCell id="pkHfYsxAeaRbyxhQVIz3-50" value="Válidos ?" style="rhombus;strokeColor=#FF0000;fillColor=#FFF2CC;verticalAlign=middle;" parent="pkHfYsxAeaRbyxhQVIz3-46" vertex="1">
          <mxGeometry x="52.5" y="90" width="75" height="30" as="geometry" />
        </mxCell>
        <mxCell id="pkHfYsxAeaRbyxhQVIz3-51" value="Credenciais" style="html=1;fontSize=12;strokeColor=#FF0000;fillColor=#FFF2CC;verticalAlign=middle;" parent="pkHfYsxAeaRbyxhQVIz3-46" vertex="1">
          <mxGeometry x="40" y="160" width="100" height="40" as="geometry" />
        </mxCell>
        <mxCell id="pkHfYsxAeaRbyxhQVIz3-52" value="Sim" style="text;html=1;strokeColor=none;fillColor=none;align=center;verticalAlign=middle;whiteSpace=wrap;rounded=0;fontSize=12;" parent="pkHfYsxAeaRbyxhQVIz3-46" vertex="1">
          <mxGeometry x="40" y="120" width="60" height="30" as="geometry" />
        </mxCell>
        <mxCell id="pkHfYsxAeaRbyxhQVIz3-53" value="Não" style="text;html=1;strokeColor=none;fillColor=none;align=center;verticalAlign=middle;whiteSpace=wrap;rounded=0;fontSize=12;" parent="pkHfYsxAeaRbyxhQVIz3-46" vertex="1">
          <mxGeometry x="110" y="80" width="60" height="30" as="geometry" />
        </mxCell>
        <mxCell id="pkHfYsxAeaRbyxhQVIz3-61" style="edgeStyle=orthogonalEdgeStyle;rounded=0;orthogonalLoop=1;jettySize=auto;html=1;exitX=1;exitY=0.5;exitDx=0;exitDy=0;entryX=0;entryY=0.5;entryDx=0;entryDy=0;fontSize=12;" parent="pkHfYsxAeaRbyxhQVIz3-2" source="pkHfYsxAeaRbyxhQVIz3-8" target="pkHfYsxAeaRbyxhQVIz3-48" edge="1">
          <mxGeometry relative="1" as="geometry">
            <mxPoint x="141.25" y="245" as="sourcePoint" />
            <mxPoint x="270" y="70" as="targetPoint" />
            <Array as="points">
              <mxPoint x="180" y="200" />
              <mxPoint x="180" y="70" />
            </Array>
          </mxGeometry>
        </mxCell>
        <mxCell id="pkHfYsxAeaRbyxhQVIz3-63" style="edgeStyle=orthogonalEdgeStyle;rounded=0;orthogonalLoop=1;jettySize=auto;html=1;exitX=1;exitY=0.5;exitDx=0;exitDy=0;entryX=0;entryY=0.5;entryDx=0;entryDy=0;fontSize=12;" parent="pkHfYsxAeaRbyxhQVIz3-2" source="pkHfYsxAeaRbyxhQVIz3-13" target="pkHfYsxAeaRbyxhQVIz3-27" edge="1">
          <mxGeometry relative="1" as="geometry">
            <mxPoint x="260" y="290" as="targetPoint" />
            <Array as="points">
              <mxPoint x="610" y="400" />
              <mxPoint x="610" y="80" />
            </Array>
          </mxGeometry>
        </mxCell>
        <mxCell id="pkHfYsxAeaRbyxhQVIz3-67" style="edgeStyle=orthogonalEdgeStyle;rounded=0;orthogonalLoop=1;jettySize=auto;html=1;exitX=1;exitY=0.5;exitDx=0;exitDy=0;entryX=0;entryY=0.5;entryDx=0;entryDy=0;fontSize=12;" parent="pkHfYsxAeaRbyxhQVIz3-2" source="pkHfYsxAeaRbyxhQVIz3-22" target="pkHfYsxAeaRbyxhQVIz3-33" edge="1">
          <mxGeometry relative="1" as="geometry">
            <Array as="points">
              <mxPoint x="160" y="700" />
              <mxPoint x="160" y="700" />
            </Array>
          </mxGeometry>
        </mxCell>
        <mxCell id="pkHfYsxAeaRbyxhQVIz3-68" style="edgeStyle=orthogonalEdgeStyle;rounded=0;orthogonalLoop=1;jettySize=auto;html=1;exitX=1;exitY=0.5;exitDx=0;exitDy=0;fontSize=12;entryX=1;entryY=1;entryDx=0;entryDy=0;" parent="pkHfYsxAeaRbyxhQVIz3-2" source="pkHfYsxAeaRbyxhQVIz3-50" target="pkHfYsxAeaRbyxhQVIz3-40" edge="1">
          <mxGeometry relative="1" as="geometry">
            <mxPoint x="390" y="910" as="targetPoint" />
            <Array as="points">
              <mxPoint x="580" y="125" />
              <mxPoint x="580" y="916" />
            </Array>
          </mxGeometry>
        </mxCell>
        <mxCell id="pkHfYsxAeaRbyxhQVIz3-54" value="ERS" style="swimlane;startSize=20;strokeColor=#FF0000;fillColor=#FFF2CC;" parent="pkHfYsxAeaRbyxhQVIz3-2" vertex="1">
          <mxGeometry x="600" y="20" width="190" height="910" as="geometry">
            <mxRectangle x="440" y="20" width="30" height="470" as="alternateBounds" />
          </mxGeometry>
        </mxCell>
        <mxCell id="pkHfYsxAeaRbyxhQVIz3-55" value="" style="edgeStyle=orthogonalEdgeStyle;rounded=0;orthogonalLoop=1;jettySize=auto;html=1;" parent="pkHfYsxAeaRbyxhQVIz3-54" edge="1">
          <mxGeometry relative="1" as="geometry">
            <mxPoint x="130.0588235294117" y="90.02352941176468" as="targetPoint" />
          </mxGeometry>
        </mxCell>
        <mxCell id="pkHfYsxAeaRbyxhQVIz3-56" value="" style="edgeStyle=orthogonalEdgeStyle;rounded=0;orthogonalLoop=1;jettySize=auto;html=1;fontSize=12;" parent="pkHfYsxAeaRbyxhQVIz3-54" edge="1">
          <mxGeometry relative="1" as="geometry">
            <mxPoint x="130" y="160" as="targetPoint" />
          </mxGeometry>
        </mxCell>
        <mxCell id="1M_8q0x9-6js9-Hmld34-0" value="" style="edgeStyle=orthogonalEdgeStyle;rounded=0;orthogonalLoop=1;jettySize=auto;html=1;fontSize=12;" parent="pkHfYsxAeaRbyxhQVIz3-54" source="pkHfYsxAeaRbyxhQVIz3-27" target="pkHfYsxAeaRbyxhQVIz3-30" edge="1">
          <mxGeometry relative="1" as="geometry" />
        </mxCell>
        <mxCell id="pkHfYsxAeaRbyxhQVIz3-27" value="Verificação dos dados" style="whiteSpace=wrap;html=1;verticalAlign=middle;fillColor=#FFF2CC;strokeColor=#FF0000;rounded=1;arcSize=10;dashed=0;" parent="pkHfYsxAeaRbyxhQVIz3-54" vertex="1">
          <mxGeometry x="25" y="40" width="140" height="40" as="geometry" />
        </mxCell>
        <mxCell id="1M_8q0x9-6js9-Hmld34-1" value="" style="edgeStyle=orthogonalEdgeStyle;rounded=0;orthogonalLoop=1;jettySize=auto;html=1;fontSize=12;" parent="pkHfYsxAeaRbyxhQVIz3-54" source="pkHfYsxAeaRbyxhQVIz3-30" target="pkHfYsxAeaRbyxhQVIz3-31" edge="1">
          <mxGeometry relative="1" as="geometry" />
        </mxCell>
        <mxCell id="pkHfYsxAeaRbyxhQVIz3-30" value="Válidos ?" style="rhombus;strokeColor=#FF0000;fillColor=#FFF2CC;verticalAlign=middle;" parent="pkHfYsxAeaRbyxhQVIz3-54" vertex="1">
          <mxGeometry x="57.5" y="110" width="75" height="30" as="geometry" />
        </mxCell>
        <mxCell id="pkHfYsxAeaRbyxhQVIz3-41" value="Não" style="text;html=1;strokeColor=none;fillColor=none;align=center;verticalAlign=middle;whiteSpace=wrap;rounded=0;fontSize=12;" parent="pkHfYsxAeaRbyxhQVIz3-54" vertex="1">
          <mxGeometry x="120" y="100" width="60" height="30" as="geometry" />
        </mxCell>
        <mxCell id="pkHfYsxAeaRbyxhQVIz3-32" value="Sim" style="text;html=1;strokeColor=none;fillColor=none;align=center;verticalAlign=middle;whiteSpace=wrap;rounded=0;fontSize=12;" parent="pkHfYsxAeaRbyxhQVIz3-54" vertex="1">
          <mxGeometry x="50" y="130" width="60" height="30" as="geometry" />
        </mxCell>
        <mxCell id="pkHfYsxAeaRbyxhQVIz3-31" value="Aprovado" style="html=1;shape=mxgraph.infographic.ribbonSimple;notch1=0;notch2=20;align=center;verticalAlign=middle;fontSize=14;fontStyle=0;fillColor=#FFFFFF;strokeColor=#FF0000;" parent="pkHfYsxAeaRbyxhQVIz3-54" vertex="1">
          <mxGeometry x="55" y="170" width="80" height="40" as="geometry" />
        </mxCell>
        <mxCell id="mGjw6NRyEuMTIpIssa09-0" style="edgeStyle=orthogonalEdgeStyle;rounded=0;orthogonalLoop=1;jettySize=auto;html=1;exitX=1;exitY=0.5;exitDx=0;exitDy=0;entryX=1;entryY=0;entryDx=0;entryDy=0;" edge="1" parent="pkHfYsxAeaRbyxhQVIz3-2" source="pkHfYsxAeaRbyxhQVIz3-30" target="pkHfYsxAeaRbyxhQVIz3-40">
          <mxGeometry relative="1" as="geometry">
            <mxPoint x="673.8095238095239" y="890" as="targetPoint" />
            <Array as="points">
              <mxPoint x="773" y="145" />
              <mxPoint x="773" y="894" />
              <mxPoint x="341" y="894" />
            </Array>
          </mxGeometry>
        </mxCell>
        <mxCell id="130bSvGR-840zClw7c8x-2" style="edgeStyle=orthogonalEdgeStyle;rounded=0;orthogonalLoop=1;jettySize=auto;html=1;exitX=1;exitY=0.5;exitDx=0;exitDy=0;exitPerimeter=0;entryX=0;entryY=0;entryDx=12;entryDy=20;entryPerimeter=0;" edge="1" parent="pkHfYsxAeaRbyxhQVIz3-2" source="pkHfYsxAeaRbyxhQVIz3-31" target="pkHfYsxAeaRbyxhQVIz3-15">
          <mxGeometry relative="1" as="geometry">
            <Array as="points">
              <mxPoint x="750" y="210" />
              <mxPoint x="750" y="470" />
            </Array>
          </mxGeometry>
        </mxCell>
        <mxCell id="u7wZFuW65Gdcr3kZ8uPp-0" style="edgeStyle=orthogonalEdgeStyle;rounded=0;orthogonalLoop=1;jettySize=auto;html=1;exitX=0.5;exitY=1;exitDx=0;exitDy=0;entryX=1;entryY=0.5;entryDx=0;entryDy=0;" edge="1" parent="pkHfYsxAeaRbyxhQVIz3-2" source="pkHfYsxAeaRbyxhQVIz3-51" target="pkHfYsxAeaRbyxhQVIz3-9">
          <mxGeometry relative="1" as="geometry" />
        </mxCell>
      </root>
    </mxGraphModel>
  </diagram>
  <diagram id="MK9pTSGoDt5wyJ4YCHEL" name="ex1_4">
    <mxGraphModel dx="1422" dy="694" grid="1" gridSize="10" guides="1" tooltips="1" connect="1" arrows="1" fold="1" page="1" pageScale="1" pageWidth="827" pageHeight="1169" math="0" shadow="0">
      <root>
        <mxCell id="uox-t3Uka_DhCpmIU8g9-0" />
        <mxCell id="uox-t3Uka_DhCpmIU8g9-1" parent="uox-t3Uka_DhCpmIU8g9-0" />
        <mxCell id="uox-t3Uka_DhCpmIU8g9-2" value="Pool" style="swimlane;childLayout=stackLayout;resizeParent=1;resizeParentMax=0;startSize=20;fillColor=#FFF2CC;strokeColor=#FF0000;" vertex="1" parent="uox-t3Uka_DhCpmIU8g9-1">
          <mxGeometry x="130" y="20" width="800" height="750" as="geometry" />
        </mxCell>
        <mxCell id="pTqRzg-FKnk9NSnDFk3t-19" style="edgeStyle=orthogonalEdgeStyle;rounded=0;orthogonalLoop=1;jettySize=auto;html=1;exitX=0;exitY=0;exitDx=0;exitDy=20;exitPerimeter=0;entryX=0;entryY=0;entryDx=20;entryDy=20;entryPerimeter=0;fontSize=12;" edge="1" parent="uox-t3Uka_DhCpmIU8g9-2" source="pTqRzg-FKnk9NSnDFk3t-11" target="pTqRzg-FKnk9NSnDFk3t-17">
          <mxGeometry relative="1" as="geometry">
            <Array as="points">
              <mxPoint x="230" y="320" />
              <mxPoint x="230" y="247" />
            </Array>
          </mxGeometry>
        </mxCell>
        <mxCell id="pTqRzg-FKnk9NSnDFk3t-25" style="edgeStyle=orthogonalEdgeStyle;rounded=0;orthogonalLoop=1;jettySize=auto;html=1;exitX=1;exitY=0.5;exitDx=0;exitDy=0;exitPerimeter=0;entryX=1;entryY=0.5;entryDx=0;entryDy=0;entryPerimeter=0;fontSize=12;" edge="1" parent="uox-t3Uka_DhCpmIU8g9-2" source="pTqRzg-FKnk9NSnDFk3t-22" target="pTqRzg-FKnk9NSnDFk3t-24">
          <mxGeometry relative="1" as="geometry">
            <Array as="points">
              <mxPoint x="230" y="397" />
              <mxPoint x="230" y="397" />
            </Array>
          </mxGeometry>
        </mxCell>
        <mxCell id="uox-t3Uka_DhCpmIU8g9-3" value="Estudante" style="swimlane;startSize=20;fillColor=#FFF2CC;strokeColor=#FF0000;" vertex="1" parent="uox-t3Uka_DhCpmIU8g9-2">
          <mxGeometry y="20" width="210" height="730" as="geometry" />
        </mxCell>
        <mxCell id="mWobOJKlVTbBuuQ4HgcH-2" value="" style="edgeStyle=orthogonalEdgeStyle;rounded=0;orthogonalLoop=1;jettySize=auto;html=1;" edge="1" parent="uox-t3Uka_DhCpmIU8g9-3" source="mWobOJKlVTbBuuQ4HgcH-0" target="mWobOJKlVTbBuuQ4HgcH-1">
          <mxGeometry relative="1" as="geometry" />
        </mxCell>
        <mxCell id="mWobOJKlVTbBuuQ4HgcH-0" value="" style="ellipse;fillColor=#000000;strokeColor=none;" vertex="1" parent="uox-t3Uka_DhCpmIU8g9-3">
          <mxGeometry x="90" y="30" width="30" height="30" as="geometry" />
        </mxCell>
        <mxCell id="pTqRzg-FKnk9NSnDFk3t-33" value="" style="edgeStyle=orthogonalEdgeStyle;rounded=0;orthogonalLoop=1;jettySize=auto;html=1;fontSize=12;" edge="1" parent="uox-t3Uka_DhCpmIU8g9-3" source="mWobOJKlVTbBuuQ4HgcH-1" target="pTqRzg-FKnk9NSnDFk3t-32">
          <mxGeometry relative="1" as="geometry" />
        </mxCell>
        <mxCell id="mWobOJKlVTbBuuQ4HgcH-1" value="Submissão do pedido" style="html=1;align=center;verticalAlign=middle;rounded=1;absoluteArcSize=1;arcSize=10;dashed=0;strokeColor=#FF0000;fillColor=#FFF2CC;" vertex="1" parent="uox-t3Uka_DhCpmIU8g9-3">
          <mxGeometry x="42.5" y="90" width="125" height="30" as="geometry" />
        </mxCell>
        <mxCell id="pTqRzg-FKnk9NSnDFk3t-21" value="" style="edgeStyle=orthogonalEdgeStyle;rounded=0;orthogonalLoop=1;jettySize=auto;html=1;fontSize=12;" edge="1" parent="uox-t3Uka_DhCpmIU8g9-3" source="pTqRzg-FKnk9NSnDFk3t-17" target="pTqRzg-FKnk9NSnDFk3t-20">
          <mxGeometry relative="1" as="geometry" />
        </mxCell>
        <mxCell id="pTqRzg-FKnk9NSnDFk3t-17" value="&lt;font style=&quot;font-size: 12px&quot;&gt;Notificação&lt;br&gt;recebida&lt;/font&gt;" style="html=1;shape=mxgraph.infographic.ribbonSimple;notch1=20;notch2=0;align=left;verticalAlign=middle;fontSize=14;fontStyle=0;flipH=1;fillColor=#FFF2CC;strokeColor=#FF0000;" vertex="1" parent="uox-t3Uka_DhCpmIU8g9-3">
          <mxGeometry x="47.5" y="207" width="115" height="40" as="geometry" />
        </mxCell>
        <mxCell id="pTqRzg-FKnk9NSnDFk3t-23" value="" style="edgeStyle=orthogonalEdgeStyle;rounded=0;orthogonalLoop=1;jettySize=auto;html=1;fontSize=12;" edge="1" parent="uox-t3Uka_DhCpmIU8g9-3" source="pTqRzg-FKnk9NSnDFk3t-20" target="pTqRzg-FKnk9NSnDFk3t-22">
          <mxGeometry relative="1" as="geometry" />
        </mxCell>
        <mxCell id="pTqRzg-FKnk9NSnDFk3t-20" value="&lt;font style=&quot;font-size: 12px&quot;&gt;Regularização de proprinas&lt;/font&gt;" style="rounded=1;whiteSpace=wrap;html=1;fontSize=14;fillColor=#FFF2CC;strokeColor=#FF0000;fontStyle=0;" vertex="1" parent="uox-t3Uka_DhCpmIU8g9-3">
          <mxGeometry x="50" y="277" width="110" height="40" as="geometry" />
        </mxCell>
        <mxCell id="pTqRzg-FKnk9NSnDFk3t-22" value="&lt;font style=&quot;font-size: 12px&quot;&gt;Notificação&lt;br&gt;de regularização&lt;/font&gt;" style="html=1;shape=mxgraph.infographic.ribbonSimple;notch1=0;notch2=20;align=left;verticalAlign=middle;fontSize=14;fontStyle=0;fillColor=#FFF2CC;strokeColor=#FF0000;" vertex="1" parent="uox-t3Uka_DhCpmIU8g9-3">
          <mxGeometry x="45" y="357" width="120" height="40" as="geometry" />
        </mxCell>
        <mxCell id="pTqRzg-FKnk9NSnDFk3t-32" value="Pedido de prova" style="text;align=center;verticalAlign=middle;dashed=0;fillColor=#FFF2CC;strokeColor=#FF0000;fontSize=12;" vertex="1" parent="uox-t3Uka_DhCpmIU8g9-3">
          <mxGeometry x="50" y="150" width="110" height="30" as="geometry" />
        </mxCell>
        <mxCell id="pTqRzg-FKnk9NSnDFk3t-45" value="" style="ellipse;html=1;shape=endState;fillColor=#000000;strokeColor=#000000;fontSize=12;" vertex="1" parent="uox-t3Uka_DhCpmIU8g9-3">
          <mxGeometry x="90" y="670" width="30" height="30" as="geometry" />
        </mxCell>
        <mxCell id="pTqRzg-FKnk9NSnDFk3t-47" value="" style="edgeStyle=orthogonalEdgeStyle;rounded=0;orthogonalLoop=1;jettySize=auto;html=1;fontSize=12;" edge="1" parent="uox-t3Uka_DhCpmIU8g9-3" source="pTqRzg-FKnk9NSnDFk3t-46" target="pTqRzg-FKnk9NSnDFk3t-45">
          <mxGeometry relative="1" as="geometry" />
        </mxCell>
        <mxCell id="pTqRzg-FKnk9NSnDFk3t-46" value="Apresentação" style="html=1;align=center;verticalAlign=top;rounded=1;absoluteArcSize=1;arcSize=10;dashed=0;fontSize=12;strokeColor=#FF0000;fillColor=#FFF2CC;" vertex="1" parent="uox-t3Uka_DhCpmIU8g9-3">
          <mxGeometry x="45" y="620" width="120" height="30" as="geometry" />
        </mxCell>
        <mxCell id="pTqRzg-FKnk9NSnDFk3t-53" value="&lt;font style=&quot;font-size: 12px&quot;&gt;Notificação&lt;br&gt;recebida&lt;/font&gt;" style="html=1;shape=mxgraph.infographic.ribbonSimple;notch1=20;notch2=0;align=left;verticalAlign=middle;fontSize=14;fontStyle=0;flipH=1;fillColor=#FFF2CC;strokeColor=#FF0000;" vertex="1" parent="uox-t3Uka_DhCpmIU8g9-3">
          <mxGeometry x="47.5" y="430" width="115" height="40" as="geometry" />
        </mxCell>
        <mxCell id="pTqRzg-FKnk9NSnDFk3t-58" style="edgeStyle=orthogonalEdgeStyle;rounded=0;orthogonalLoop=1;jettySize=auto;html=1;exitX=1;exitY=0.5;exitDx=0;exitDy=0;entryX=0.5;entryY=0;entryDx=0;entryDy=0;fontSize=12;" edge="1" parent="uox-t3Uka_DhCpmIU8g9-3" source="pTqRzg-FKnk9NSnDFk3t-55" target="pTqRzg-FKnk9NSnDFk3t-46">
          <mxGeometry relative="1" as="geometry">
            <Array as="points">
              <mxPoint x="180" y="525" />
              <mxPoint x="180" y="600" />
              <mxPoint x="105" y="600" />
            </Array>
          </mxGeometry>
        </mxCell>
        <mxCell id="pTqRzg-FKnk9NSnDFk3t-55" value="" style="shape=collate;whiteSpace=wrap;html=1;fontSize=12;strokeColor=#FF0000;fillColor=#FFF2CC;" vertex="1" parent="uox-t3Uka_DhCpmIU8g9-3">
          <mxGeometry x="86.25" y="505" width="37.5" height="40" as="geometry" />
        </mxCell>
        <mxCell id="pTqRzg-FKnk9NSnDFk3t-59" value="Data de apresentação" style="text;html=1;strokeColor=none;fillColor=none;align=center;verticalAlign=middle;whiteSpace=wrap;rounded=0;fontSize=12;" vertex="1" parent="uox-t3Uka_DhCpmIU8g9-3">
          <mxGeometry x="75" y="560" width="60" height="30" as="geometry" />
        </mxCell>
        <mxCell id="uox-t3Uka_DhCpmIU8g9-4" value="Secretaria" style="swimlane;startSize=20;fillColor=#FFF2CC;strokeColor=#FF0000;" vertex="1" parent="uox-t3Uka_DhCpmIU8g9-2">
          <mxGeometry x="210" y="20" width="210" height="730" as="geometry" />
        </mxCell>
        <mxCell id="pTqRzg-FKnk9NSnDFk3t-3" value="" style="edgeStyle=orthogonalEdgeStyle;rounded=0;orthogonalLoop=1;jettySize=auto;html=1;" edge="1" parent="uox-t3Uka_DhCpmIU8g9-4" source="pTqRzg-FKnk9NSnDFk3t-0" target="pTqRzg-FKnk9NSnDFk3t-2">
          <mxGeometry relative="1" as="geometry" />
        </mxCell>
        <mxCell id="pTqRzg-FKnk9NSnDFk3t-0" value="Análise de propinas" style="html=1;align=center;verticalAlign=middle;rounded=1;absoluteArcSize=1;arcSize=10;dashed=0;strokeColor=#FF0000;fillColor=#FFF2CC;" vertex="1" parent="uox-t3Uka_DhCpmIU8g9-4">
          <mxGeometry x="30" y="150" width="120" height="30" as="geometry" />
        </mxCell>
        <mxCell id="pTqRzg-FKnk9NSnDFk3t-12" value="" style="edgeStyle=orthogonalEdgeStyle;rounded=0;orthogonalLoop=1;jettySize=auto;html=1;fontSize=12;" edge="1" parent="uox-t3Uka_DhCpmIU8g9-4" source="pTqRzg-FKnk9NSnDFk3t-2" target="pTqRzg-FKnk9NSnDFk3t-11">
          <mxGeometry relative="1" as="geometry" />
        </mxCell>
        <mxCell id="pTqRzg-FKnk9NSnDFk3t-2" value="Regularizadas ?" style="rhombus;whiteSpace=wrap;html=1;fillColor=#FFF2CC;strokeColor=#FF0000;rounded=1;arcSize=0;dashed=0;" vertex="1" parent="uox-t3Uka_DhCpmIU8g9-4">
          <mxGeometry x="37.5" y="210" width="105" height="35" as="geometry" />
        </mxCell>
        <mxCell id="pTqRzg-FKnk9NSnDFk3t-11" value="&lt;font style=&quot;font-size: 12px&quot;&gt;Notificação&lt;br&gt;de irregularidade&lt;/font&gt;" style="html=1;shape=mxgraph.infographic.ribbonSimple;notch1=0;notch2=20;align=left;verticalAlign=middle;fontSize=14;fontStyle=0;fillColor=#FFF2CC;strokeColor=#FF0000;" vertex="1" parent="uox-t3Uka_DhCpmIU8g9-4">
          <mxGeometry x="30" y="280" width="120" height="40" as="geometry" />
        </mxCell>
        <mxCell id="pTqRzg-FKnk9NSnDFk3t-26" style="edgeStyle=orthogonalEdgeStyle;rounded=0;orthogonalLoop=1;jettySize=auto;html=1;exitX=0;exitY=0;exitDx=20;exitDy=20;exitPerimeter=0;entryX=1;entryY=0.5;entryDx=0;entryDy=0;fontSize=12;" edge="1" parent="uox-t3Uka_DhCpmIU8g9-4" source="pTqRzg-FKnk9NSnDFk3t-24" target="pTqRzg-FKnk9NSnDFk3t-0">
          <mxGeometry relative="1" as="geometry">
            <mxPoint x="140" y="261" as="targetPoint" />
            <Array as="points">
              <mxPoint x="200" y="377" />
              <mxPoint x="200" y="165" />
            </Array>
          </mxGeometry>
        </mxCell>
        <mxCell id="pTqRzg-FKnk9NSnDFk3t-24" value="&lt;font style=&quot;font-size: 12px&quot;&gt;Notificação&lt;br&gt;recebida&lt;/font&gt;" style="html=1;shape=mxgraph.infographic.ribbonSimple;notch1=20;notch2=0;align=left;verticalAlign=middle;fontSize=14;fontStyle=0;flipH=1;fillColor=#FFF2CC;strokeColor=#FF0000;" vertex="1" parent="uox-t3Uka_DhCpmIU8g9-4">
          <mxGeometry x="32.5" y="357" width="115" height="40" as="geometry" />
        </mxCell>
        <mxCell id="pTqRzg-FKnk9NSnDFk3t-29" value="Pedido de&#xa;homologação&#xa;de Júri" style="text;align=center;verticalAlign=middle;dashed=0;fillColor=#FFF2CC;strokeColor=#FF0000;fontSize=12;" vertex="1" parent="uox-t3Uka_DhCpmIU8g9-4">
          <mxGeometry x="35" y="500" width="110" height="44" as="geometry" />
        </mxCell>
        <mxCell id="pTqRzg-FKnk9NSnDFk3t-27" style="edgeStyle=orthogonalEdgeStyle;rounded=0;orthogonalLoop=1;jettySize=auto;html=1;exitX=1;exitY=0.5;exitDx=0;exitDy=0;fontSize=12;entryX=0.5;entryY=0;entryDx=0;entryDy=0;" edge="1" parent="uox-t3Uka_DhCpmIU8g9-4" source="pTqRzg-FKnk9NSnDFk3t-2" target="pTqRzg-FKnk9NSnDFk3t-29">
          <mxGeometry relative="1" as="geometry">
            <mxPoint x="200" y="552" as="targetPoint" />
            <Array as="points">
              <mxPoint x="170" y="228" />
              <mxPoint x="170" y="480" />
              <mxPoint x="90" y="480" />
            </Array>
          </mxGeometry>
        </mxCell>
        <mxCell id="pTqRzg-FKnk9NSnDFk3t-30" value="Sim" style="text;html=1;strokeColor=none;fillColor=none;align=center;verticalAlign=middle;whiteSpace=wrap;rounded=0;fontSize=12;" vertex="1" parent="uox-t3Uka_DhCpmIU8g9-4">
          <mxGeometry x="134" y="200" width="60" height="30" as="geometry" />
        </mxCell>
        <mxCell id="pTqRzg-FKnk9NSnDFk3t-31" value="Não" style="text;html=1;strokeColor=none;fillColor=none;align=center;verticalAlign=middle;whiteSpace=wrap;rounded=0;fontSize=12;" vertex="1" parent="uox-t3Uka_DhCpmIU8g9-4">
          <mxGeometry x="74" y="240" width="60" height="30" as="geometry" />
        </mxCell>
        <mxCell id="uox-t3Uka_DhCpmIU8g9-5" value="Reitoria" style="swimlane;startSize=20;fillColor=#FFF2CC;strokeColor=#FF0000;" vertex="1" parent="uox-t3Uka_DhCpmIU8g9-2">
          <mxGeometry x="420" y="20" width="190" height="730" as="geometry" />
        </mxCell>
        <mxCell id="pTqRzg-FKnk9NSnDFk3t-37" value="Apreciação" style="rhombus;whiteSpace=wrap;html=1;fillColor=#FFF2CC;strokeColor=#FF0000;rounded=1;arcSize=0;dashed=0;" vertex="1" parent="uox-t3Uka_DhCpmIU8g9-5">
          <mxGeometry x="50" y="32.5" width="80" height="35" as="geometry" />
        </mxCell>
        <mxCell id="pTqRzg-FKnk9NSnDFk3t-44" value="Positiva" style="text;html=1;strokeColor=none;fillColor=none;align=center;verticalAlign=middle;whiteSpace=wrap;rounded=0;fontSize=12;" vertex="1" parent="uox-t3Uka_DhCpmIU8g9-5">
          <mxGeometry x="130" y="20" width="60" height="30" as="geometry" />
        </mxCell>
        <mxCell id="pTqRzg-FKnk9NSnDFk3t-61" value="Negativa" style="text;html=1;strokeColor=none;fillColor=none;align=center;verticalAlign=middle;whiteSpace=wrap;rounded=0;fontSize=12;" vertex="1" parent="uox-t3Uka_DhCpmIU8g9-5">
          <mxGeometry x="90" y="67.5" width="60" height="30" as="geometry" />
        </mxCell>
        <mxCell id="pTqRzg-FKnk9NSnDFk3t-34" style="edgeStyle=orthogonalEdgeStyle;rounded=0;orthogonalLoop=1;jettySize=auto;html=1;exitX=1;exitY=0.5;exitDx=0;exitDy=0;entryX=0;entryY=0.5;entryDx=0;entryDy=0;fontSize=12;" edge="1" parent="uox-t3Uka_DhCpmIU8g9-2" source="pTqRzg-FKnk9NSnDFk3t-32" target="pTqRzg-FKnk9NSnDFk3t-0">
          <mxGeometry relative="1" as="geometry">
            <Array as="points">
              <mxPoint x="220" y="185" />
              <mxPoint x="220" y="185" />
            </Array>
          </mxGeometry>
        </mxCell>
        <mxCell id="pTqRzg-FKnk9NSnDFk3t-36" style="edgeStyle=orthogonalEdgeStyle;rounded=0;orthogonalLoop=1;jettySize=auto;html=1;exitX=1;exitY=0.5;exitDx=0;exitDy=0;entryX=0;entryY=0.5;entryDx=0;entryDy=0;fontSize=12;" edge="1" parent="uox-t3Uka_DhCpmIU8g9-2" source="pTqRzg-FKnk9NSnDFk3t-29" target="pTqRzg-FKnk9NSnDFk3t-37">
          <mxGeometry relative="1" as="geometry">
            <mxPoint x="475" y="70" as="targetPoint" />
            <Array as="points">
              <mxPoint x="355" y="540" />
              <mxPoint x="450" y="540" />
              <mxPoint x="450" y="70" />
            </Array>
          </mxGeometry>
        </mxCell>
        <mxCell id="pTqRzg-FKnk9NSnDFk3t-43" style="edgeStyle=orthogonalEdgeStyle;rounded=0;orthogonalLoop=1;jettySize=auto;html=1;exitX=1;exitY=0.5;exitDx=0;exitDy=0;entryX=0;entryY=0.5;entryDx=0;entryDy=0;fontSize=12;" edge="1" parent="uox-t3Uka_DhCpmIU8g9-2" source="pTqRzg-FKnk9NSnDFk3t-37" target="pTqRzg-FKnk9NSnDFk3t-42">
          <mxGeometry relative="1" as="geometry" />
        </mxCell>
        <mxCell id="pTqRzg-FKnk9NSnDFk3t-39" value="Presidente do Júri" style="swimlane;startSize=20;fillColor=#FFF2CC;strokeColor=#FF0000;" vertex="1" parent="uox-t3Uka_DhCpmIU8g9-2">
          <mxGeometry x="610" y="20" width="190" height="730" as="geometry" />
        </mxCell>
        <mxCell id="pTqRzg-FKnk9NSnDFk3t-50" value="" style="edgeStyle=orthogonalEdgeStyle;rounded=0;orthogonalLoop=1;jettySize=auto;html=1;fontSize=12;" edge="1" parent="pTqRzg-FKnk9NSnDFk3t-39" source="pTqRzg-FKnk9NSnDFk3t-42" target="pTqRzg-FKnk9NSnDFk3t-49">
          <mxGeometry relative="1" as="geometry" />
        </mxCell>
        <mxCell id="pTqRzg-FKnk9NSnDFk3t-42" value="Marcação da prova" style="html=1;align=center;verticalAlign=top;rounded=1;absoluteArcSize=1;arcSize=10;dashed=0;fontSize=12;strokeColor=#FF0000;fillColor=#FFF2CC;" vertex="1" parent="pTqRzg-FKnk9NSnDFk3t-39">
          <mxGeometry x="30" y="36.5" width="140" height="27" as="geometry" />
        </mxCell>
        <mxCell id="pTqRzg-FKnk9NSnDFk3t-49" value="&lt;font style=&quot;font-size: 12px&quot;&gt;Notificação&lt;br&gt;de data&lt;/font&gt;" style="html=1;shape=mxgraph.infographic.ribbonSimple;notch1=0;notch2=20;align=left;verticalAlign=middle;fontSize=14;fontStyle=0;fillColor=#FFF2CC;strokeColor=#FF0000;" vertex="1" parent="pTqRzg-FKnk9NSnDFk3t-39">
          <mxGeometry x="52.5" y="90" width="95" height="40" as="geometry" />
        </mxCell>
        <mxCell id="pTqRzg-FKnk9NSnDFk3t-54" style="edgeStyle=orthogonalEdgeStyle;rounded=0;orthogonalLoop=1;jettySize=auto;html=1;exitX=1;exitY=0.5;exitDx=0;exitDy=0;exitPerimeter=0;entryX=0;entryY=0;entryDx=20;entryDy=20;entryPerimeter=0;fontSize=12;" edge="1" parent="uox-t3Uka_DhCpmIU8g9-2" source="pTqRzg-FKnk9NSnDFk3t-49" target="pTqRzg-FKnk9NSnDFk3t-53">
          <mxGeometry relative="1" as="geometry">
            <Array as="points">
              <mxPoint x="770" y="130" />
              <mxPoint x="770" y="470" />
            </Array>
          </mxGeometry>
        </mxCell>
        <mxCell id="pTqRzg-FKnk9NSnDFk3t-60" style="edgeStyle=orthogonalEdgeStyle;rounded=0;orthogonalLoop=1;jettySize=auto;html=1;exitX=0.5;exitY=1;exitDx=0;exitDy=0;entryX=1;entryY=0.5;entryDx=0;entryDy=0;fontSize=12;" edge="1" parent="uox-t3Uka_DhCpmIU8g9-2" source="pTqRzg-FKnk9NSnDFk3t-37" target="pTqRzg-FKnk9NSnDFk3t-45">
          <mxGeometry relative="1" as="geometry" />
        </mxCell>
      </root>
    </mxGraphModel>
  </diagram>
</mxfile>
